<svg xmlns="http://www.w3.org/2000/svg" viewBox="0 0 1080 1920">
  <defs><radialGradient id="f-04-sua-ideia" cx="540" cy="960" r="1190.4" gradientUnits="userSpaceOnUse">
    <stop offset="0" stop-color="#24272C"/><stop offset=".45" stop-color="#1B1D21"/><stop offset="1" stop-color="#16171A"/>
  </radialGradient></defs>
  <rect width="1080" height="1920" fill="url(#f-04-sua-ideia)"/>
  <g transform="translate(90 510) scale(9.375)"><g transform="translate(0 2.5)"><path d="M40 58V55C40 50 31 47.5 31 38.5A17 17 0 0 1 65 38.5C65 47.5 56 50 56 55V58Z" fill="#F26522"/><path d="M40 58V55C40 50 31 47.5 31 38.5A17 17 0 0 1 65 38.5C65 47.5 56 50 56 55V58Z" fill="none" stroke="#F3F2EE" stroke-width="4.5" stroke-linejoin="miter" stroke-miterlimit="4"/><path d="M41 65H55" fill="none" stroke="#F3F2EE" stroke-width="4.5" stroke-linejoin="miter" stroke-miterlimit="4"/><path d="M44 71.5H52" fill="none" stroke="#F3F2EE" stroke-width="4.5" stroke-linejoin="miter" stroke-miterlimit="4"/></g></g>
</svg>