<svg xmlns="http://www.w3.org/2000/svg" viewBox="0 0 1080 1920">
  <defs><radialGradient id="f-04-sua-ideia" cx="540" cy="960" r="1190.4" gradientUnits="userSpaceOnUse">
    <stop offset="0" stop-color="#24272C"/><stop offset=".45" stop-color="#1B1D21"/><stop offset="1" stop-color="#16171A"/>
  </radialGradient></defs>
  <rect width="1080" height="1920" fill="url(#f-04-sua-ideia)"/>
  <g transform="translate(90 510) scale(9.375)"><g transform="translate(48 73.43) scale(1.04)"><path d="M3.43 0L3.42 0.17L3.42 -2.43L3.43 -2.6Z" fill="#1f2125" stroke="#1f2125" stroke-width="0.34" stroke-linejoin="round"/><path d="M-3.42 0.17L-3.43 0L-3.43 -2.6L-3.42 -2.43Z" fill="#3a3d44" stroke="#3a3d44" stroke-width="0.34" stroke-linejoin="round"/><path d="M3.42 0.17L3.38 0.34L3.38 -2.26L3.42 -2.43Z" fill="#1f2125" stroke="#1f2125" stroke-width="0.34" stroke-linejoin="round"/><path d="M-3.38 0.34L-3.42 0.17L-3.42 -2.43L-3.38 -2.26Z" fill="#3a3d44" stroke="#3a3d44" stroke-width="0.34" stroke-linejoin="round"/><path d="M3.38 0.34L3.31 0.51L3.31 -2.09L3.38 -2.26Z" fill="#1f2125" stroke="#1f2125" stroke-width="0.34" stroke-linejoin="round"/><path d="M-3.31 0.51L-3.38 0.34L-3.38 -2.26L-3.31 -2.09Z" fill="#3a3d44" stroke="#3a3d44" stroke-width="0.34" stroke-linejoin="round"/><path d="M3.31 0.51L3.22 0.68L3.22 -1.92L3.31 -2.09Z" fill="#1f2125" stroke="#1f2125" stroke-width="0.34" stroke-linejoin="round"/><path d="M-3.22 0.68L-3.31 0.51L-3.31 -2.09L-3.22 -1.92Z" fill="#3a3d44" stroke="#3a3d44" stroke-width="0.34" stroke-linejoin="round"/><path d="M2.42 -1.2L2.2 -1.08L1.97 -0.98L1.71 -0.89L1.45 -0.81L1.17 -0.74L0.89 -0.69L0.6 -0.65L0.3 -0.63L0 -0.62L-0.3 -0.63L-0.6 -0.65L-0.89 -0.69L-1.17 -0.74L-1.45 -0.81L-1.71 -0.89L-1.97 -0.98L-2.2 -1.08L-2.42 -1.2L-2.63 -1.33L-2.81 -1.46L-2.97 -1.61L-3.11 -1.76L-3.22 -1.92L-3.31 -2.09L-3.38 -2.26L-3.42 -2.43L-3.43 -2.6L-3.42 -2.77L-3.38 -2.94L-3.31 -3.11L-3.22 -3.28L-3.11 -3.44L-2.97 -3.59L-2.81 -3.74L-2.63 -3.87L-2.42 -4L-2.2 -4.12L-1.97 -4.22L-1.71 -4.31L-1.45 -4.39L-1.17 -4.46L-0.89 -4.51L-0.6 -4.55L-0.3 -4.57L0 -4.58L0.3 -4.57L0.6 -4.55L0.89 -4.51L1.17 -4.46L1.45 -4.39L1.71 -4.31L1.97 -4.22L2.2 -4.12L2.42 -4L2.63 -3.87L2.81 -3.74L2.97 -3.59L3.11 -3.44L3.22 -3.28L3.31 -3.11L3.38 -2.94L3.42 -2.77L3.43 -2.6L3.42 -2.43L3.38 -2.26L3.31 -2.09L3.22 -1.92L3.11 -1.76L2.97 -1.61L2.81 -1.46L2.63 -1.33Z" fill="#2c2f35" stroke="#2c2f35" stroke-width="0.34" stroke-linejoin="round"/><path d="M3.22 0.68L3.11 0.84L3.11 -1.76L3.22 -1.92Z" fill="#1f2125" stroke="#1f2125" stroke-width="0.34" stroke-linejoin="round"/><path d="M-3.11 0.84L-3.22 0.68L-3.22 -1.92L-3.11 -1.76Z" fill="#3a3d44" stroke="#3a3d44" stroke-width="0.34" stroke-linejoin="round"/><path d="M3.11 0.84L2.97 0.99L2.97 -1.61L3.11 -1.76Z" fill="#1f2125" stroke="#1f2125" stroke-width="0.34" stroke-linejoin="round"/><path d="M-2.97 0.99L-3.11 0.84L-3.11 -1.76L-2.97 -1.61Z" fill="#3a3d44" stroke="#3a3d44" stroke-width="0.34" stroke-linejoin="round"/><path d="M-2.81 1.14L-2.97 0.99L-2.97 -1.61L-2.81 -1.46Z" fill="#3a3d44" stroke="#3a3d44" stroke-width="0.34" stroke-linejoin="round"/><path d="M2.97 0.99L2.81 1.14L2.81 -1.46L2.97 -1.61Z" fill="#1f2125" stroke="#1f2125" stroke-width="0.34" stroke-linejoin="round"/><path d="M2.81 1.14L2.63 1.27L2.63 -1.33L2.81 -1.46Z" fill="#1f2125" stroke="#1f2125" stroke-width="0.34" stroke-linejoin="round"/><path d="M-2.63 1.27L-2.81 1.14L-2.81 -1.46L-2.63 -1.33Z" fill="#3a3d44" stroke="#3a3d44" stroke-width="0.34" stroke-linejoin="round"/><path d="M2.63 1.27L2.42 1.4L2.42 -1.2L2.63 -1.33Z" fill="#1f2125" stroke="#1f2125" stroke-width="0.34" stroke-linejoin="round"/><path d="M-2.42 1.4L-2.63 1.27L-2.63 -1.33L-2.42 -1.2Z" fill="#3a3d44" stroke="#3a3d44" stroke-width="0.34" stroke-linejoin="round"/><path d="M2.42 1.4L2.2 1.52L2.2 -1.08L2.42 -1.2Z" fill="#202226" stroke="#202226" stroke-width="0.34" stroke-linejoin="round"/><path d="M-2.2 1.52L-2.42 1.4L-2.42 -1.2L-2.2 -1.08Z" fill="#393c43" stroke="#393c43" stroke-width="0.34" stroke-linejoin="round"/><path d="M2.2 1.52L1.97 1.62L1.97 -0.98L2.2 -1.08Z" fill="#222429" stroke="#222429" stroke-width="0.34" stroke-linejoin="round"/><path d="M-1.97 1.62L-2.2 1.52L-2.2 -1.08L-1.97 -0.98Z" fill="#373a40" stroke="#373a40" stroke-width="0.34" stroke-linejoin="round"/><path d="M1.97 1.62L1.71 1.71L1.71 -0.89L1.97 -0.98Z" fill="#24262b" stroke="#24262b" stroke-width="0.34" stroke-linejoin="round"/><path d="M-1.71 1.71L-1.97 1.62L-1.97 -0.98L-1.71 -0.89Z" fill="#35383e" stroke="#35383e" stroke-width="0.34" stroke-linejoin="round"/><path d="M1.71 1.71L1.45 1.79L1.45 -0.81L1.71 -0.89Z" fill="#25282c" stroke="#25282c" stroke-width="0.34" stroke-linejoin="round"/><path d="M-1.45 1.79L-1.71 1.71L-1.71 -0.89L-1.45 -0.81Z" fill="#34363d" stroke="#34363d" stroke-width="0.34" stroke-linejoin="round"/><path d="M1.45 1.79L1.17 1.86L1.17 -0.74L1.45 -0.81Z" fill="#27292e" stroke="#27292e" stroke-width="0.34" stroke-linejoin="round"/><path d="M-1.17 1.86L-1.45 1.79L-1.45 -0.81L-1.17 -0.74Z" fill="#32353b" stroke="#32353b" stroke-width="0.34" stroke-linejoin="round"/><path d="M-0.89 1.91L-1.17 1.86L-1.17 -0.74L-0.89 -0.69Z" fill="#313339" stroke="#313339" stroke-width="0.34" stroke-linejoin="round"/><path d="M1.17 1.86L0.89 1.91L0.89 -0.69L1.17 -0.74Z" fill="#282b30" stroke="#282b30" stroke-width="0.34" stroke-linejoin="round"/><path d="M0.89 1.91L0.6 1.95L0.6 -0.65L0.89 -0.69Z" fill="#2a2c31" stroke="#2a2c31" stroke-width="0.34" stroke-linejoin="round"/><path d="M-0.6 1.95L-0.89 1.91L-0.89 -0.69L-0.6 -0.65Z" fill="#2f3238" stroke="#2f3238" stroke-width="0.34" stroke-linejoin="round"/><path d="M0.6 1.95L0.3 1.97L0.3 -0.63L0.6 -0.65Z" fill="#2b2d32" stroke="#2b2d32" stroke-width="0.34" stroke-linejoin="round"/><path d="M-0.3 1.97L-0.6 1.95L-0.6 -0.65L-0.3 -0.63Z" fill="#2e3137" stroke="#2e3137" stroke-width="0.34" stroke-linejoin="round"/><path d="M0.3 1.97L0 1.98L0 -0.62L0.3 -0.63Z" fill="#2c2e34" stroke="#2c2e34" stroke-width="0.34" stroke-linejoin="round"/><path d="M0 1.98L-0.3 1.97L-0.3 -0.63L0 -0.62Z" fill="#2d3035" stroke="#2d3035" stroke-width="0.34" stroke-linejoin="round"/><path d="M7.59 -2.6L7.56 -2.22L7.56 -12.62L7.59 -13Z" fill="#a9aaa6" stroke="#a9aaa6" stroke-width="0.34" stroke-linejoin="round"/><path d="M-7.56 -2.22L-7.59 -2.6L-7.59 -13L-7.56 -12.62Z" fill="#f3f2ee" stroke="#f3f2ee" stroke-width="0.34" stroke-linejoin="round"/><path d="M7.56 -2.22L7.48 -1.84L7.48 -12.24L7.56 -12.62Z" fill="#a9aaa6" stroke="#a9aaa6" stroke-width="0.34" stroke-linejoin="round"/><path d="M-7.48 -1.84L-7.56 -2.22L-7.56 -12.62L-7.48 -12.24Z" fill="#f3f2ee" stroke="#f3f2ee" stroke-width="0.34" stroke-linejoin="round"/><path d="M7.48 -1.84L7.33 -1.47L7.33 -11.87L7.48 -12.24Z" fill="#a9aaa6" stroke="#a9aaa6" stroke-width="0.34" stroke-linejoin="round"/><path d="M-7.33 -1.47L-7.48 -1.84L-7.48 -12.24L-7.33 -11.87Z" fill="#f3f2ee" stroke="#f3f2ee" stroke-width="0.34" stroke-linejoin="round"/><path d="M7.33 -1.47L7.14 -1.1L7.14 -11.5L7.33 -11.87Z" fill="#a9aaa6" stroke="#a9aaa6" stroke-width="0.34" stroke-linejoin="round"/><path d="M-7.14 -1.1L-7.33 -1.47L-7.33 -11.87L-7.14 -11.5Z" fill="#f3f2ee" stroke="#f3f2ee" stroke-width="0.34" stroke-linejoin="round"/><path d="M7.14 -1.1L6.88 -0.75L6.88 -11.15L7.14 -11.5Z" fill="#a9aaa6" stroke="#a9aaa6" stroke-width="0.34" stroke-linejoin="round"/><path d="M-6.88 -0.75L-7.14 -1.1L-7.14 -11.5L-6.88 -11.15Z" fill="#f3f2ee" stroke="#f3f2ee" stroke-width="0.34" stroke-linejoin="round"/><path d="M-6.58 -0.41L-6.88 -0.75L-6.88 -11.15L-6.58 -10.81Z" fill="#f3f2ee" stroke="#f3f2ee" stroke-width="0.34" stroke-linejoin="round"/><path d="M6.88 -0.75L6.58 -0.41L6.58 -10.81L6.88 -11.15Z" fill="#a9aaa6" stroke="#a9aaa6" stroke-width="0.34" stroke-linejoin="round"/><path d="M6.58 -0.41L6.22 -0.09L6.22 -10.49L6.58 -10.81Z" fill="#a9aaa6" stroke="#a9aaa6" stroke-width="0.34" stroke-linejoin="round"/><path d="M-6.22 -0.09L-6.58 -0.41L-6.58 -10.81L-6.22 -10.49Z" fill="#f3f2ee" stroke="#f3f2ee" stroke-width="0.34" stroke-linejoin="round"/><path d="M-5.82 0.22L-6.22 -0.09L-6.22 -10.49L-5.82 -10.18Z" fill="#f3f2ee" stroke="#f3f2ee" stroke-width="0.34" stroke-linejoin="round"/><path d="M6.22 -0.09L5.82 0.22L5.82 -10.18L6.22 -10.49Z" fill="#a9aaa6" stroke="#a9aaa6" stroke-width="0.34" stroke-linejoin="round"/><path d="M-5.37 0.5L-5.82 0.22L-5.82 -10.18L-5.37 -9.9Z" fill="#f3f2ee" stroke="#f3f2ee" stroke-width="0.34" stroke-linejoin="round"/><path d="M5.82 0.22L5.37 0.5L5.37 -9.9L5.82 -10.18Z" fill="#a9aaa6" stroke="#a9aaa6" stroke-width="0.34" stroke-linejoin="round"/><path d="M5.37 0.5L4.88 0.76L4.88 -9.64L5.37 -9.9Z" fill="#acada9" stroke="#acada9" stroke-width="0.34" stroke-linejoin="round"/><path d="M-4.88 0.76L-5.37 0.5L-5.37 -9.9L-4.88 -9.64Z" fill="#f0efeb" stroke="#f0efeb" stroke-width="0.34" stroke-linejoin="round"/><path d="M8.82 -13L8.78 -12.56L8.78 -15.16L8.82 -15.6Z" fill="#a9aaa6" stroke="#a9aaa6" stroke-width="0.34" stroke-linejoin="round"/><path d="M-8.78 -12.56L-8.82 -13L-8.82 -15.6L-8.78 -15.16Z" fill="#f3f2ee" stroke="#f3f2ee" stroke-width="0.34" stroke-linejoin="round"/><path d="M4.88 0.76L4.36 0.99L4.36 -9.41L4.88 -9.64Z" fill="#b2b2ae" stroke="#b2b2ae" stroke-width="0.34" stroke-linejoin="round"/><path d="M-4.36 0.99L-4.88 0.76L-4.88 -9.64L-4.36 -9.41Z" fill="#eaeae6" stroke="#eaeae6" stroke-width="0.34" stroke-linejoin="round"/><path d="M-3.8 1.2L-4.36 0.99L-4.36 -9.41L-3.8 -9.2Z" fill="#e6e5e1" stroke="#e6e5e1" stroke-width="0.34" stroke-linejoin="round"/><path d="M4.36 0.99L3.8 1.2L3.8 -9.2L4.36 -9.41Z" fill="#b6b7b3" stroke="#b6b7b3" stroke-width="0.34" stroke-linejoin="round"/><path d="M3.8 1.2L3.21 1.37L3.21 -9.03L3.8 -9.2Z" fill="#bbbbb7" stroke="#bbbbb7" stroke-width="0.34" stroke-linejoin="round"/><path d="M-3.21 1.37L-3.8 1.2L-3.8 -9.2L-3.21 -9.03Z" fill="#e1e1dd" stroke="#e1e1dd" stroke-width="0.34" stroke-linejoin="round"/><path d="M6.24 -12L5.67 -11.7L5.06 -11.43L4.41 -11.19L3.73 -10.99L3.02 -10.82L2.28 -10.68L1.53 -10.59L0.77 -10.53L0 -10.51L-0.77 -10.53L-1.53 -10.59L-2.28 -10.68L-3.02 -10.82L-3.73 -10.99L-4.41 -11.19L-5.06 -11.43L-5.67 -11.7L-6.24 -12L-6.76 -12.33L-7.22 -12.68L-7.64 -13.05L-7.99 -13.45L-8.29 -13.86L-8.52 -14.28L-8.68 -14.72L-8.78 -15.16L-8.82 -15.6L-8.78 -16.04L-8.68 -16.48L-8.52 -16.92L-8.29 -17.34L-7.99 -17.75L-7.64 -18.15L-7.22 -18.52L-6.76 -18.87L-6.24 -19.2L-5.67 -19.5L-5.06 -19.77L-4.41 -20.01L-3.73 -20.21L-3.02 -20.38L-2.28 -20.52L-1.53 -20.61L-0.77 -20.67L0 -20.69L0.77 -20.67L1.53 -20.61L2.28 -20.52L3.02 -20.38L3.73 -20.21L4.41 -20.01L5.06 -19.77L5.67 -19.5L6.24 -19.2L6.76 -18.87L7.22 -18.52L7.64 -18.15L7.99 -17.75L8.29 -17.34L8.52 -16.92L8.68 -16.48L8.78 -16.04L8.82 -15.6L8.78 -15.16L8.68 -14.72L8.52 -14.28L8.29 -13.86L7.99 -13.45L7.64 -13.05L7.22 -12.68L6.76 -12.33Z" fill="#deddd8" stroke="#deddd8" stroke-width="0.34" stroke-linejoin="round"/><path d="M8.78 -12.56L8.68 -12.12L8.68 -14.72L8.78 -15.16Z" fill="#a9aaa6" stroke="#a9aaa6" stroke-width="0.34" stroke-linejoin="round"/><path d="M-8.68 -12.12L-8.78 -12.56L-8.78 -15.16L-8.68 -14.72Z" fill="#f3f2ee" stroke="#f3f2ee" stroke-width="0.34" stroke-linejoin="round"/><path d="M3.21 1.37L2.6 1.52L2.6 -8.88L3.21 -9.03Z" fill="#bfbfbb" stroke="#bfbfbb" stroke-width="0.34" stroke-linejoin="round"/><path d="M-2.6 1.52L-3.21 1.37L-3.21 -9.03L-2.6 -8.88Z" fill="#ddddd9" stroke="#ddddd9" stroke-width="0.34" stroke-linejoin="round"/><path d="M2.6 1.52L1.97 1.63L1.97 -8.77L2.6 -8.88Z" fill="#c2c3bf" stroke="#c2c3bf" stroke-width="0.34" stroke-linejoin="round"/><path d="M-1.97 1.63L-2.6 1.52L-2.6 -8.88L-1.97 -8.77Z" fill="#dad9d5" stroke="#dad9d5" stroke-width="0.34" stroke-linejoin="round"/><path d="M1.97 1.63L1.32 1.72L1.32 -8.68L1.97 -8.77Z" fill="#c6c6c2" stroke="#c6c6c2" stroke-width="0.34" stroke-linejoin="round"/><path d="M-1.32 1.72L-1.97 1.63L-1.97 -8.77L-1.32 -8.68Z" fill="#d6d6d2" stroke="#d6d6d2" stroke-width="0.34" stroke-linejoin="round"/><path d="M1.32 1.72L0.66 1.77L0.66 -8.63L1.32 -8.68Z" fill="#c9c9c5" stroke="#c9c9c5" stroke-width="0.34" stroke-linejoin="round"/><path d="M-0.66 1.77L-1.32 1.72L-1.32 -8.68L-0.66 -8.63Z" fill="#d3d3cf" stroke="#d3d3cf" stroke-width="0.34" stroke-linejoin="round"/><path d="M8.68 -12.12L8.52 -11.68L8.52 -14.28L8.68 -14.72Z" fill="#a9aaa6" stroke="#a9aaa6" stroke-width="0.34" stroke-linejoin="round"/><path d="M-8.52 -11.68L-8.68 -12.12L-8.68 -14.72L-8.52 -14.28Z" fill="#f3f2ee" stroke="#f3f2ee" stroke-width="0.34" stroke-linejoin="round"/><path d="M0.66 1.77L0 1.78L0 -8.62L0.66 -8.63Z" fill="#ccccc8" stroke="#ccccc8" stroke-width="0.34" stroke-linejoin="round"/><path d="M0 1.78L-0.66 1.77L-0.66 -8.63L0 -8.62Z" fill="#d0d0cc" stroke="#d0d0cc" stroke-width="0.34" stroke-linejoin="round"/><path d="M8.52 -11.68L8.29 -11.26L8.29 -13.86L8.52 -14.28Z" fill="#a9aaa6" stroke="#a9aaa6" stroke-width="0.34" stroke-linejoin="round"/><path d="M-8.29 -11.26L-8.52 -11.68L-8.52 -14.28L-8.29 -13.86Z" fill="#f3f2ee" stroke="#f3f2ee" stroke-width="0.34" stroke-linejoin="round"/><path d="M-7.99 -10.85L-8.29 -11.26L-8.29 -13.86L-7.99 -13.45Z" fill="#f3f2ee" stroke="#f3f2ee" stroke-width="0.34" stroke-linejoin="round"/><path d="M8.29 -11.26L7.99 -10.85L7.99 -13.45L8.29 -13.86Z" fill="#a9aaa6" stroke="#a9aaa6" stroke-width="0.34" stroke-linejoin="round"/><path d="M7.99 -10.85L7.64 -10.45L7.64 -13.05L7.99 -13.45Z" fill="#a9aaa6" stroke="#a9aaa6" stroke-width="0.34" stroke-linejoin="round"/><path d="M-7.64 -10.45L-7.99 -10.85L-7.99 -13.45L-7.64 -13.05Z" fill="#f3f2ee" stroke="#f3f2ee" stroke-width="0.34" stroke-linejoin="round"/><path d="M-7.22 -10.08L-7.64 -10.45L-7.64 -13.05L-7.22 -12.68Z" fill="#f3f2ee" stroke="#f3f2ee" stroke-width="0.34" stroke-linejoin="round"/><path d="M7.64 -10.45L7.22 -10.08L7.22 -12.68L7.64 -13.05Z" fill="#a9aaa6" stroke="#a9aaa6" stroke-width="0.34" stroke-linejoin="round"/><path d="M-6.76 -9.73L-7.22 -10.08L-7.22 -12.68L-6.76 -12.33Z" fill="#f3f2ee" stroke="#f3f2ee" stroke-width="0.34" stroke-linejoin="round"/><path d="M7.22 -10.08L6.76 -9.73L6.76 -12.33L7.22 -12.68Z" fill="#a9aaa6" stroke="#a9aaa6" stroke-width="0.34" stroke-linejoin="round"/><path d="M-6.24 -9.4L-6.76 -9.73L-6.76 -12.33L-6.24 -12Z" fill="#f3f2ee" stroke="#f3f2ee" stroke-width="0.34" stroke-linejoin="round"/><path d="M6.76 -9.73L6.24 -9.4L6.24 -12L6.76 -12.33Z" fill="#a9aaa6" stroke="#a9aaa6" stroke-width="0.34" stroke-linejoin="round"/><path d="M6.24 -9.4L5.67 -9.1L5.67 -11.7L6.24 -12Z" fill="#acada9" stroke="#acada9" stroke-width="0.34" stroke-linejoin="round"/><path d="M-5.67 -9.1L-6.24 -9.4L-6.24 -12L-5.67 -11.7Z" fill="#f0efeb" stroke="#f0efeb" stroke-width="0.34" stroke-linejoin="round"/><path d="M5.67 -9.1L5.06 -8.83L5.06 -11.43L5.67 -11.7Z" fill="#b2b2ae" stroke="#b2b2ae" stroke-width="0.34" stroke-linejoin="round"/><path d="M-5.06 -8.83L-5.67 -9.1L-5.67 -11.7L-5.06 -11.43Z" fill="#eaeae6" stroke="#eaeae6" stroke-width="0.34" stroke-linejoin="round"/><path d="M5.06 -8.83L4.41 -8.59L4.41 -11.19L5.06 -11.43Z" fill="#b6b7b3" stroke="#b6b7b3" stroke-width="0.34" stroke-linejoin="round"/><path d="M-4.41 -8.59L-5.06 -8.83L-5.06 -11.43L-4.41 -11.19Z" fill="#e6e5e1" stroke="#e6e5e1" stroke-width="0.34" stroke-linejoin="round"/><path d="M4.41 -8.59L3.73 -8.39L3.73 -10.99L4.41 -11.19Z" fill="#bbbbb7" stroke="#bbbbb7" stroke-width="0.34" stroke-linejoin="round"/><path d="M-3.73 -8.39L-4.41 -8.59L-4.41 -11.19L-3.73 -10.99Z" fill="#e1e1dd" stroke="#e1e1dd" stroke-width="0.34" stroke-linejoin="round"/><path d="M3.73 -8.39L3.02 -8.22L3.02 -10.82L3.73 -10.99Z" fill="#bfbfbb" stroke="#bfbfbb" stroke-width="0.34" stroke-linejoin="round"/><path d="M-3.02 -8.22L-3.73 -8.39L-3.73 -10.99L-3.02 -10.82Z" fill="#ddddd9" stroke="#ddddd9" stroke-width="0.34" stroke-linejoin="round"/><path d="M3.02 -8.22L2.28 -8.08L2.28 -10.68L3.02 -10.82Z" fill="#c2c3bf" stroke="#c2c3bf" stroke-width="0.34" stroke-linejoin="round"/><path d="M-2.28 -8.08L-3.02 -8.22L-3.02 -10.82L-2.28 -10.68Z" fill="#dad9d5" stroke="#dad9d5" stroke-width="0.34" stroke-linejoin="round"/><path d="M2.28 -8.08L1.53 -7.99L1.53 -10.59L2.28 -10.68Z" fill="#c6c6c2" stroke="#c6c6c2" stroke-width="0.34" stroke-linejoin="round"/><path d="M-1.53 -7.99L-2.28 -8.08L-2.28 -10.68L-1.53 -10.59Z" fill="#d6d6d2" stroke="#d6d6d2" stroke-width="0.34" stroke-linejoin="round"/><path d="M1.53 -7.99L0.77 -7.93L0.77 -10.53L1.53 -10.59Z" fill="#c9c9c5" stroke="#c9c9c5" stroke-width="0.34" stroke-linejoin="round"/><path d="M-0.77 -7.93L-1.53 -7.99L-1.53 -10.59L-0.77 -10.53Z" fill="#d3d3cf" stroke="#d3d3cf" stroke-width="0.34" stroke-linejoin="round"/><path d="M0.77 -7.93L0 -7.91L0 -10.51L0.77 -10.53Z" fill="#ccccc8" stroke="#ccccc8" stroke-width="0.34" stroke-linejoin="round"/><path d="M0 -7.91L-0.77 -7.93L-0.77 -10.53L0 -10.51Z" fill="#d0d0cc" stroke="#d0d0cc" stroke-width="0.34" stroke-linejoin="round"/><path d="M7.56 -4.82L7.59 -5.2M7.56 -7.42L7.59 -7.8M7.56 -10.02L7.59 -10.4M-7.59 -5.2L-7.56 -4.82M-7.59 -7.8L-7.56 -7.42M-7.59 -10.4L-7.56 -10.02M7.48 -4.44L7.56 -4.82M7.48 -7.04L7.56 -7.42M7.48 -9.64L7.56 -10.02M-7.56 -4.82L-7.48 -4.44M-7.56 -7.42L-7.48 -7.04M-7.56 -10.02L-7.48 -9.64M7.33 -4.07L7.48 -4.44M7.33 -6.67L7.48 -7.04M7.33 -9.27L7.48 -9.64M-7.48 -4.44L-7.33 -4.07M-7.48 -7.04L-7.33 -6.67M-7.48 -9.64L-7.33 -9.27M7.14 -3.7L7.33 -4.07M7.14 -6.3L7.33 -6.67M7.14 -8.9L7.33 -9.27M-7.33 -4.07L-7.14 -3.7M-7.33 -6.67L-7.14 -6.3M-7.33 -9.27L-7.14 -8.9M6.88 -3.35L7.14 -3.7M6.88 -5.95L7.14 -6.3M6.88 -8.55L7.14 -8.9M-7.14 -3.7L-6.88 -3.35M-7.14 -6.3L-6.88 -5.95M-7.14 -8.9L-6.88 -8.55M-6.88 -3.35L-6.58 -3.01M-6.88 -5.95L-6.58 -5.61M-6.88 -8.55L-6.58 -8.21M6.58 -3.01L6.88 -3.35M6.58 -5.61L6.88 -5.95M6.58 -8.21L6.88 -8.55M6.22 -2.69L6.58 -3.01M6.22 -5.29L6.58 -5.61M6.22 -7.89L6.58 -8.21M-6.58 -3.01L-6.22 -2.69M-6.58 -5.61L-6.22 -5.29M-6.58 -8.21L-6.22 -7.89M-6.22 -2.69L-5.82 -2.38M-6.22 -5.29L-5.82 -4.98M-6.22 -7.89L-5.82 -7.58M5.82 -2.38L6.22 -2.69M5.82 -4.98L6.22 -5.29M5.82 -7.58L6.22 -7.89M-5.82 -2.38L-5.37 -2.1M-5.82 -4.98L-5.37 -4.7M-5.82 -7.58L-5.37 -7.3M5.37 -2.1L5.82 -2.38M5.37 -4.7L5.82 -4.98M5.37 -7.3L5.82 -7.58M4.88 -1.84L5.37 -2.1M4.88 -4.44L5.37 -4.7M4.88 -7.04L5.37 -7.3M-5.37 -2.1L-4.88 -1.84M-5.37 -4.7L-4.88 -4.44M-5.37 -7.3L-4.88 -7.04M4.36 -1.61L4.88 -1.84M4.36 -4.21L4.88 -4.44M4.36 -6.81L4.88 -7.04M-4.88 -1.84L-4.36 -1.61M-4.88 -4.44L-4.36 -4.21M-4.88 -7.04L-4.36 -6.81M-4.36 -1.61L-3.8 -1.4M-4.36 -4.21L-3.8 -4M-4.36 -6.81L-3.8 -6.6M3.8 -1.4L4.36 -1.61M3.8 -4L4.36 -4.21M3.8 -6.6L4.36 -6.81M3.21 -1.23L3.8 -1.4M3.21 -3.83L3.8 -4M3.21 -6.43L3.8 -6.6M-3.8 -1.4L-3.21 -1.23M-3.8 -4L-3.21 -3.83M-3.8 -6.6L-3.21 -6.43M2.6 -1.08L3.21 -1.23M2.6 -3.68L3.21 -3.83M2.6 -6.28L3.21 -6.43M-3.21 -1.23L-2.6 -1.08M-3.21 -3.83L-2.6 -3.68M-3.21 -6.43L-2.6 -6.28M1.97 -0.97L2.6 -1.08M1.97 -3.57L2.6 -3.68M1.97 -6.17L2.6 -6.28M-2.6 -1.08L-1.97 -0.97M-2.6 -3.68L-1.97 -3.57M-2.6 -6.28L-1.97 -6.17M1.32 -0.88L1.97 -0.97M1.32 -3.48L1.97 -3.57M1.32 -6.08L1.97 -6.17M-1.97 -0.97L-1.32 -0.88M-1.97 -3.57L-1.32 -3.48M-1.97 -6.17L-1.32 -6.08M0.66 -0.83L1.32 -0.88M0.66 -3.43L1.32 -3.48M0.66 -6.03L1.32 -6.08M-1.32 -0.88L-0.66 -0.83M-1.32 -3.48L-0.66 -3.43M-1.32 -6.08L-0.66 -6.03M0 -0.82L0.66 -0.83M0 -3.42L0.66 -3.43M0 -6.02L0.66 -6.03M-0.66 -0.83L0 -0.82M-0.66 -3.43L0 -3.42M-0.66 -6.03L0 -6.02" fill="none" stroke="#1B1D21" stroke-opacity="0.34" stroke-width="1.24"/><path d="M7.6 -14L7.33 -13.63L9.32 -16.49L9.67 -16.97Z" fill="#bc4c12" stroke="#bc4c12" stroke-width="0.34" stroke-linejoin="round"/><path d="M-7.33 -13.63L-7.6 -14L-9.67 -16.97L-9.32 -16.49Z" fill="#f26522" stroke="#f26522" stroke-width="0.34" stroke-linejoin="round"/><path d="M7.33 -13.63L7 -13.27L8.91 -16.03L9.32 -16.49Z" fill="#bc4c12" stroke="#bc4c12" stroke-width="0.34" stroke-linejoin="round"/><path d="M-7 -13.27L-7.33 -13.63L-9.32 -16.49L-8.91 -16.03Z" fill="#f26522" stroke="#f26522" stroke-width="0.34" stroke-linejoin="round"/><path d="M-6.62 -12.92L-7 -13.27L-8.91 -16.03L-8.43 -15.59Z" fill="#f26522" stroke="#f26522" stroke-width="0.34" stroke-linejoin="round"/><path d="M7 -13.27L6.62 -12.92L8.43 -15.59L8.91 -16.03Z" fill="#bc4c12" stroke="#bc4c12" stroke-width="0.34" stroke-linejoin="round"/><path d="M-6.19 -12.6L-6.62 -12.92L-8.43 -15.59L-7.88 -15.18Z" fill="#f26522" stroke="#f26522" stroke-width="0.34" stroke-linejoin="round"/><path d="M6.62 -12.92L6.19 -12.6L7.88 -15.18L8.43 -15.59Z" fill="#bc4c12" stroke="#bc4c12" stroke-width="0.34" stroke-linejoin="round"/><path d="M-5.72 -12.3L-6.19 -12.6L-7.88 -15.18L-7.27 -14.8Z" fill="#f26522" stroke="#f26522" stroke-width="0.34" stroke-linejoin="round"/><path d="M6.19 -12.6L5.72 -12.3L7.27 -14.8L7.88 -15.18Z" fill="#bc4c12" stroke="#bc4c12" stroke-width="0.34" stroke-linejoin="round"/><path d="M5.72 -12.3L5.2 -12.02L6.61 -14.45L7.27 -14.8Z" fill="#be4d13" stroke="#be4d13" stroke-width="0.34" stroke-linejoin="round"/><path d="M-5.2 -12.02L-5.72 -12.3L-7.27 -14.8L-6.61 -14.45Z" fill="#f06421" stroke="#f06421" stroke-width="0.34" stroke-linejoin="round"/><path d="M5.2 -12.02L4.64 -11.78L5.9 -14.13L6.61 -14.45Z" fill="#c24f14" stroke="#c24f14" stroke-width="0.34" stroke-linejoin="round"/><path d="M-4.64 -11.78L-5.2 -12.02L-6.61 -14.45L-5.9 -14.13Z" fill="#ec6220" stroke="#ec6220" stroke-width="0.34" stroke-linejoin="round"/><path d="M4.64 -11.78L4.04 -11.56L5.14 -13.86L5.9 -14.13Z" fill="#c65115" stroke="#c65115" stroke-width="0.34" stroke-linejoin="round"/><path d="M-4.04 -11.56L-4.64 -11.78L-5.9 -14.13L-5.14 -13.86Z" fill="#e8601f" stroke="#e8601f" stroke-width="0.34" stroke-linejoin="round"/><path d="M-3.42 -11.37L-4.04 -11.56L-5.14 -13.86L-4.35 -13.62Z" fill="#e55f1e" stroke="#e55f1e" stroke-width="0.34" stroke-linejoin="round"/><path d="M4.04 -11.56L3.42 -11.37L4.35 -13.62L5.14 -13.86Z" fill="#c95216" stroke="#c95216" stroke-width="0.34" stroke-linejoin="round"/><path d="M3.42 -11.37L2.76 -11.21L3.52 -13.42L4.35 -13.62Z" fill="#cc5317" stroke="#cc5317" stroke-width="0.34" stroke-linejoin="round"/><path d="M-2.76 -11.21L-3.42 -11.37L-4.35 -13.62L-3.52 -13.42Z" fill="#e25e1d" stroke="#e25e1d" stroke-width="0.34" stroke-linejoin="round"/><path d="M2.76 -11.21L2.09 -11.09L2.66 -13.26L3.52 -13.42Z" fill="#ce5517" stroke="#ce5517" stroke-width="0.34" stroke-linejoin="round"/><path d="M-2.09 -11.09L-2.76 -11.21L-3.52 -13.42L-2.66 -13.26Z" fill="#e05c1d" stroke="#e05c1d" stroke-width="0.34" stroke-linejoin="round"/><path d="M2.09 -11.09L1.4 -11L1.79 -13.15L2.66 -13.26Z" fill="#d15618" stroke="#d15618" stroke-width="0.34" stroke-linejoin="round"/><path d="M-1.4 -11L-2.09 -11.09L-2.66 -13.26L-1.79 -13.15Z" fill="#dd5b1c" stroke="#dd5b1c" stroke-width="0.34" stroke-linejoin="round"/><path d="M-0.7 -10.95L-1.4 -11L-1.79 -13.15L-0.9 -13.08Z" fill="#db5a1b" stroke="#db5a1b" stroke-width="0.34" stroke-linejoin="round"/><path d="M1.4 -11L0.7 -10.95L0.9 -13.08L1.79 -13.15Z" fill="#d35719" stroke="#d35719" stroke-width="0.34" stroke-linejoin="round"/><path d="M0 -10.93L-0.7 -10.95L-0.9 -13.08L0 -13.06Z" fill="#d8591a" stroke="#d8591a" stroke-width="0.34" stroke-linejoin="round"/><path d="M0.7 -10.95L0 -10.93L0 -13.06L0.9 -13.08Z" fill="#d6581a" stroke="#d6581a" stroke-width="0.34" stroke-linejoin="round"/><path d="M8.43 -15.59L7.88 -15.18L10.88 -17.73L11.64 -18.3Z" fill="#bc4c12" stroke="#bc4c12" stroke-width="0.34" stroke-linejoin="round"/><path d="M-7.88 -15.18L-8.43 -15.59L-11.64 -18.3L-10.88 -17.73Z" fill="#f26522" stroke="#f26522" stroke-width="0.34" stroke-linejoin="round"/><path d="M-7.27 -14.8L-7.88 -15.18L-10.88 -17.73L-10.05 -17.2Z" fill="#f26522" stroke="#f26522" stroke-width="0.34" stroke-linejoin="round"/><path d="M7.88 -15.18L7.27 -14.8L10.05 -17.2L10.88 -17.73Z" fill="#bc4c12" stroke="#bc4c12" stroke-width="0.34" stroke-linejoin="round"/><path d="M-6.61 -14.45L-7.27 -14.8L-10.05 -17.2L-9.13 -16.72Z" fill="#f06421" stroke="#f06421" stroke-width="0.34" stroke-linejoin="round"/><path d="M7.27 -14.8L6.61 -14.45L9.13 -16.72L10.05 -17.2Z" fill="#be4d13" stroke="#be4d13" stroke-width="0.34" stroke-linejoin="round"/><path d="M13.35 -20.19L12.88 -19.53L15.54 -23.32L16.11 -24.11Z" fill="#bc4c12" stroke="#bc4c12" stroke-width="0.34" stroke-linejoin="round"/><path d="M-12.88 -19.53L-13.35 -20.19L-16.11 -24.11L-15.54 -23.32Z" fill="#f26522" stroke="#f26522" stroke-width="0.34" stroke-linejoin="round"/><path d="M6.61 -14.45L5.9 -14.13L8.15 -16.28L9.13 -16.72Z" fill="#c24f14" stroke="#c24f14" stroke-width="0.34" stroke-linejoin="round"/><path d="M-5.9 -14.13L-6.61 -14.45L-9.13 -16.72L-8.15 -16.28Z" fill="#ec6220" stroke="#ec6220" stroke-width="0.34" stroke-linejoin="round"/><path d="M12.01 -46.32L12.84 -45.69L10.03 -47.66L9.38 -48.15Z" fill="#eb6220" stroke="#eb6220" stroke-width="0.34" stroke-linejoin="round"/><path d="M-12.84 -45.69L-12.01 -46.32L-9.38 -48.15L-10.03 -47.66Z" fill="#f26522" stroke="#f26522" stroke-width="0.34" stroke-linejoin="round"/><path d="M5.9 -14.13L5.14 -13.86L7.1 -15.9L8.15 -16.28Z" fill="#c65115" stroke="#c65115" stroke-width="0.34" stroke-linejoin="round"/><path d="M-5.14 -13.86L-5.9 -14.13L-8.15 -16.28L-7.1 -15.9Z" fill="#e8601f" stroke="#e8601f" stroke-width="0.34" stroke-linejoin="round"/><path d="M18.3 -32.92L18.37 -32L17.76 -36.5L17.69 -37.39Z" fill="#c45014" stroke="#c45014" stroke-width="0.34" stroke-linejoin="round"/><path d="M-18.37 -32L-18.3 -32.92L-17.69 -37.39L-17.76 -36.5Z" fill="#f26522" stroke="#f26522" stroke-width="0.34" stroke-linejoin="round"/><path d="M12.84 -45.69L13.58 -45.03L10.61 -47.14L10.03 -47.66Z" fill="#e8601f" stroke="#e8601f" stroke-width="0.34" stroke-linejoin="round"/><path d="M-13.58 -45.03L-12.84 -45.69L-10.03 -47.66L-10.61 -47.14Z" fill="#f26522" stroke="#f26522" stroke-width="0.34" stroke-linejoin="round"/><path d="M0 -50.67L1.07 -50.64L0.64 -50.03L0 -50.04Z" fill="#f26522" stroke="#f26522" stroke-width="0.34" stroke-linejoin="round"/><path d="M-1.07 -50.64L0 -50.67L0 -50.04L-0.64 -50.03Z" fill="#f26522" stroke="#f26522" stroke-width="0.34" stroke-linejoin="round"/><path d="M1.07 -50.64L2.13 -50.56L1.28 -49.98L0.64 -50.03Z" fill="#f26522" stroke="#f26522" stroke-width="0.34" stroke-linejoin="round"/><path d="M-2.13 -50.56L-1.07 -50.64L-0.64 -50.03L-1.28 -49.98Z" fill="#f26522" stroke="#f26522" stroke-width="0.34" stroke-linejoin="round"/><path d="M5.14 -13.86L4.35 -13.62L6 -15.57L7.1 -15.9Z" fill="#c95216" stroke="#c95216" stroke-width="0.34" stroke-linejoin="round"/><path d="M-4.35 -13.62L-5.14 -13.86L-7.1 -15.9L-6 -15.57Z" fill="#e55f1e" stroke="#e55f1e" stroke-width="0.34" stroke-linejoin="round"/><path d="M-12.3 -18.9L-12.88 -19.53L-15.54 -23.32L-14.85 -22.55Z" fill="#f26522" stroke="#f26522" stroke-width="0.34" stroke-linejoin="round"/><path d="M12.88 -19.53L12.3 -18.9L14.85 -22.55L15.54 -23.32Z" fill="#bc4c12" stroke="#bc4c12" stroke-width="0.34" stroke-linejoin="round"/><path d="M2.13 -50.56L3.17 -50.43L1.9 -49.9L1.28 -49.98Z" fill="#f26522" stroke="#f26522" stroke-width="0.34" stroke-linejoin="round"/><path d="M-3.17 -50.43L-2.13 -50.56L-1.28 -49.98L-1.9 -49.9Z" fill="#f26522" stroke="#f26522" stroke-width="0.34" stroke-linejoin="round"/><path d="M-4.19 -50.24L-3.17 -50.43L-1.9 -49.9L-2.51 -49.79Z" fill="#f26522" stroke="#f26522" stroke-width="0.34" stroke-linejoin="round"/><path d="M3.17 -50.43L4.19 -50.24L2.51 -49.79L1.9 -49.9Z" fill="#f26522" stroke="#f26522" stroke-width="0.34" stroke-linejoin="round"/><path d="M4.35 -13.62L3.52 -13.42L4.86 -15.29L6 -15.57Z" fill="#cc5317" stroke="#cc5317" stroke-width="0.34" stroke-linejoin="round"/><path d="M-3.52 -13.42L-4.35 -13.62L-6 -15.57L-4.86 -15.29Z" fill="#e25e1d" stroke="#e25e1d" stroke-width="0.34" stroke-linejoin="round"/><path d="M16.89 -25.78L16.56 -24.94L17.75 -29.25L18.09 -30.16Z" fill="#bc4c12" stroke="#bc4c12" stroke-width="0.34" stroke-linejoin="round"/><path d="M-16.56 -24.94L-16.89 -25.78L-18.09 -30.16L-17.75 -29.25Z" fill="#f26522" stroke="#f26522" stroke-width="0.34" stroke-linejoin="round"/><path d="M-5.18 -50.01L-4.19 -50.24L-2.51 -49.79L-3.11 -49.65Z" fill="#f26522" stroke="#f26522" stroke-width="0.34" stroke-linejoin="round"/><path d="M4.19 -50.24L5.18 -50.01L3.11 -49.65L2.51 -49.79Z" fill="#f26522" stroke="#f26522" stroke-width="0.34" stroke-linejoin="round"/><path d="M-17.49 -38.28L-17.15 -39.15L-15.14 -42.84L-15.44 -42.07Z" fill="#f26522" stroke="#f26522" stroke-width="0.34" stroke-linejoin="round"/><path d="M17.15 -39.15L17.49 -38.28L15.44 -42.07L15.14 -42.84Z" fill="#d45719" stroke="#d45719" stroke-width="0.34" stroke-linejoin="round"/><path d="M-2.66 -13.26L-3.52 -13.42L-4.86 -15.29L-3.68 -15.08Z" fill="#e05c1d" stroke="#e05c1d" stroke-width="0.34" stroke-linejoin="round"/><path d="M3.52 -13.42L2.66 -13.26L3.68 -15.08L4.86 -15.29Z" fill="#ce5517" stroke="#ce5517" stroke-width="0.34" stroke-linejoin="round"/><path d="M13.58 -45.03L14.21 -44.33L11.1 -46.59L10.61 -47.14Z" fill="#e55f1e" stroke="#e55f1e" stroke-width="0.34" stroke-linejoin="round"/><path d="M-14.21 -44.33L-13.58 -45.03L-10.61 -47.14L-11.1 -46.59Z" fill="#f26522" stroke="#f26522" stroke-width="0.34" stroke-linejoin="round"/><path d="M-6.12 -49.72L-5.18 -50.01L-3.11 -49.65L-3.67 -49.47Z" fill="#f26522" stroke="#f26522" stroke-width="0.34" stroke-linejoin="round"/><path d="M5.18 -50.01L6.12 -49.72L3.67 -49.47L3.11 -49.65Z" fill="#f26522" stroke="#f26522" stroke-width="0.34" stroke-linejoin="round"/><path d="M2.66 -13.26L1.79 -13.15L2.47 -14.92L3.68 -15.08Z" fill="#d15618" stroke="#d15618" stroke-width="0.34" stroke-linejoin="round"/><path d="M-1.79 -13.15L-2.66 -13.26L-3.68 -15.08L-2.47 -14.92Z" fill="#dd5b1c" stroke="#dd5b1c" stroke-width="0.34" stroke-linejoin="round"/><path d="M-11.64 -18.3L-12.3 -18.9L-14.85 -22.55L-14.05 -21.82Z" fill="#f26522" stroke="#f26522" stroke-width="0.34" stroke-linejoin="round"/><path d="M12.3 -18.9L11.64 -18.3L14.05 -21.82L14.85 -22.55Z" fill="#bc4c12" stroke="#bc4c12" stroke-width="0.34" stroke-linejoin="round"/><path d="M1.79 -13.15L0.9 -13.08L1.24 -14.83L2.47 -14.92Z" fill="#d35719" stroke="#d35719" stroke-width="0.34" stroke-linejoin="round"/><path d="M-0.9 -13.08L-1.79 -13.15L-2.47 -14.92L-1.24 -14.83Z" fill="#db5a1b" stroke="#db5a1b" stroke-width="0.34" stroke-linejoin="round"/><path d="M0 -13.06L-0.9 -13.08L-1.24 -14.83L0 -14.8Z" fill="#d8591a" stroke="#d8591a" stroke-width="0.34" stroke-linejoin="round"/><path d="M0.9 -13.08L0 -13.06L0 -14.8L1.24 -14.83Z" fill="#d6581a" stroke="#d6581a" stroke-width="0.34" stroke-linejoin="round"/><path d="M18.37 -32L18.3 -31.08L17.69 -35.61L17.76 -36.5Z" fill="#c34f14" stroke="#c34f14" stroke-width="0.34" stroke-linejoin="round"/><path d="M-18.3 -31.08L-18.37 -32L-17.76 -36.5L-17.69 -35.61Z" fill="#f26522" stroke="#f26522" stroke-width="0.34" stroke-linejoin="round"/><path d="M-7.02 -49.39L-6.12 -49.72L-3.67 -49.47L-4.21 -49.28Z" fill="#f26522" stroke="#f26522" stroke-width="0.34" stroke-linejoin="round"/><path d="M6.12 -49.72L7.02 -49.39L4.21 -49.28L3.67 -49.47Z" fill="#f26522" stroke="#f26522" stroke-width="0.34" stroke-linejoin="round"/><path d="M-7.87 -49.02L-7.02 -49.39L-4.21 -49.28L-4.72 -49.05Z" fill="#f26522" stroke="#f26522" stroke-width="0.34" stroke-linejoin="round"/><path d="M7.02 -49.39L7.87 -49.02L4.72 -49.05L4.21 -49.28Z" fill="#f26522" stroke="#f26522" stroke-width="0.34" stroke-linejoin="round"/><path d="M-14.73 -43.6L-14.21 -44.33L-11.1 -46.59L-11.51 -46.02Z" fill="#f26522" stroke="#f26522" stroke-width="0.34" stroke-linejoin="round"/><path d="M14.21 -44.33L14.73 -43.6L11.51 -46.02L11.1 -46.59Z" fill="#e25e1d" stroke="#e25e1d" stroke-width="0.34" stroke-linejoin="round"/><path d="M16.56 -24.94L16.11 -24.11L17.26 -28.37L17.75 -29.25Z" fill="#bc4c12" stroke="#bc4c12" stroke-width="0.34" stroke-linejoin="round"/><path d="M-16.11 -24.11L-16.56 -24.94L-17.75 -29.25L-17.26 -28.37Z" fill="#f26522" stroke="#f26522" stroke-width="0.34" stroke-linejoin="round"/><path d="M-17.69 -37.39L-17.49 -38.28L-15.44 -42.07L-15.62 -41.29Z" fill="#f26522" stroke="#f26522" stroke-width="0.34" stroke-linejoin="round"/><path d="M17.49 -38.28L17.69 -37.39L15.62 -41.29L15.44 -42.07Z" fill="#d25619" stroke="#d25619" stroke-width="0.34" stroke-linejoin="round"/><path d="M-10.88 -17.73L-11.64 -18.3L-14.05 -21.82L-13.13 -21.14Z" fill="#f26522" stroke="#f26522" stroke-width="0.34" stroke-linejoin="round"/><path d="M11.64 -18.3L10.88 -17.73L13.13 -21.14L14.05 -21.82Z" fill="#bc4c12" stroke="#bc4c12" stroke-width="0.34" stroke-linejoin="round"/><path d="M-8.66 -48.6L-7.87 -49.02L-4.72 -49.05L-5.2 -48.8Z" fill="#f26522" stroke="#f26522" stroke-width="0.34" stroke-linejoin="round"/><path d="M7.87 -49.02L8.66 -48.6L5.2 -48.8L4.72 -49.05Z" fill="#f26522" stroke="#f26522" stroke-width="0.34" stroke-linejoin="round"/><path d="M18.3 -31.08L18.09 -30.16L17.49 -34.72L17.69 -35.61Z" fill="#c34f14" stroke="#c34f14" stroke-width="0.34" stroke-linejoin="round"/><path d="M-18.09 -30.16L-18.3 -31.08L-17.69 -35.61L-17.49 -34.72Z" fill="#f26522" stroke="#f26522" stroke-width="0.34" stroke-linejoin="round"/><path d="M-9.38 -48.15L-8.66 -48.6L-5.2 -48.8L-5.63 -48.53Z" fill="#f26522" stroke="#f26522" stroke-width="0.34" stroke-linejoin="round"/><path d="M8.66 -48.6L9.38 -48.15L5.63 -48.53L5.2 -48.8Z" fill="#f16422" stroke="#f16422" stroke-width="0.34" stroke-linejoin="round"/><path d="M-15.14 -42.84L-14.73 -43.6L-11.51 -46.02L-11.83 -45.43Z" fill="#f26522" stroke="#f26522" stroke-width="0.34" stroke-linejoin="round"/><path d="M14.73 -43.6L15.14 -42.84L11.83 -45.43L11.51 -46.02Z" fill="#e05d1d" stroke="#e05d1d" stroke-width="0.34" stroke-linejoin="round"/><path d="M-10.05 -17.2L-10.88 -17.73L-13.13 -21.14L-12.12 -20.5Z" fill="#f26522" stroke="#f26522" stroke-width="0.34" stroke-linejoin="round"/><path d="M10.88 -17.73L10.05 -17.2L12.12 -20.5L13.13 -21.14Z" fill="#bc4c12" stroke="#bc4c12" stroke-width="0.34" stroke-linejoin="round"/><path d="M16.11 -24.11L15.54 -23.32L16.65 -27.52L17.26 -28.37Z" fill="#bc4c12" stroke="#bc4c12" stroke-width="0.34" stroke-linejoin="round"/><path d="M-15.54 -23.32L-16.11 -24.11L-17.26 -28.37L-16.65 -27.52Z" fill="#f26522" stroke="#f26522" stroke-width="0.34" stroke-linejoin="round"/><path d="M17.69 -37.39L17.76 -36.5L15.68 -40.5L15.62 -41.29Z" fill="#d15618" stroke="#d15618" stroke-width="0.34" stroke-linejoin="round"/><path d="M-17.76 -36.5L-17.69 -37.39L-15.62 -41.29L-15.68 -40.5Z" fill="#f26522" stroke="#f26522" stroke-width="0.34" stroke-linejoin="round"/><path d="M-10.03 -47.66L-9.38 -48.15L-5.63 -48.53L-6.02 -48.23Z" fill="#f26522" stroke="#f26522" stroke-width="0.34" stroke-linejoin="round"/><path d="M9.38 -48.15L10.03 -47.66L6.02 -48.23L5.63 -48.53Z" fill="#ee6321" stroke="#ee6321" stroke-width="0.34" stroke-linejoin="round"/><path d="M-15.44 -42.07L-15.14 -42.84L-11.83 -45.43L-12.06 -44.83Z" fill="#f26522" stroke="#f26522" stroke-width="0.34" stroke-linejoin="round"/><path d="M15.14 -42.84L15.44 -42.07L12.06 -44.83L11.83 -45.43Z" fill="#de5c1c" stroke="#de5c1c" stroke-width="0.34" stroke-linejoin="round"/><path d="M10.05 -17.2L9.13 -16.72L11.02 -19.92L12.12 -20.5Z" fill="#be4d13" stroke="#be4d13" stroke-width="0.34" stroke-linejoin="round"/><path d="M-9.13 -16.72L-10.05 -17.2L-12.12 -20.5L-11.02 -19.92Z" fill="#f06421" stroke="#f06421" stroke-width="0.34" stroke-linejoin="round"/><path d="M10.03 -47.66L10.61 -47.14L6.36 -47.92L6.02 -48.23Z" fill="#ec6220" stroke="#ec6220" stroke-width="0.34" stroke-linejoin="round"/><path d="M-10.61 -47.14L-10.03 -47.66L-6.02 -48.23L-6.36 -47.92Z" fill="#f26522" stroke="#f26522" stroke-width="0.34" stroke-linejoin="round"/><path d="M18.09 -30.16L17.75 -29.25L17.15 -33.85L17.49 -34.72Z" fill="#c24f14" stroke="#c24f14" stroke-width="0.34" stroke-linejoin="round"/><path d="M-17.75 -29.25L-18.09 -30.16L-17.49 -34.72L-17.15 -33.85Z" fill="#f26522" stroke="#f26522" stroke-width="0.34" stroke-linejoin="round"/><path d="M15.54 -23.32L14.85 -22.55L15.91 -26.7L16.65 -27.52Z" fill="#bc4c12" stroke="#bc4c12" stroke-width="0.34" stroke-linejoin="round"/><path d="M-14.85 -22.55L-15.54 -23.32L-16.65 -27.52L-15.91 -26.7Z" fill="#f26522" stroke="#f26522" stroke-width="0.34" stroke-linejoin="round"/><path d="M-17.69 -35.61L-17.76 -36.5L-15.68 -40.5L-15.62 -39.71Z" fill="#f26522" stroke="#f26522" stroke-width="0.34" stroke-linejoin="round"/><path d="M17.76 -36.5L17.69 -35.61L15.62 -39.71L15.68 -40.5Z" fill="#d05518" stroke="#d05518" stroke-width="0.34" stroke-linejoin="round"/><path d="M-11.1 -46.59L-10.61 -47.14L-6.36 -47.92L-6.66 -47.59Z" fill="#f26522" stroke="#f26522" stroke-width="0.34" stroke-linejoin="round"/><path d="M10.61 -47.14L11.1 -46.59L6.66 -47.59L6.36 -47.92Z" fill="#ea6120" stroke="#ea6120" stroke-width="0.34" stroke-linejoin="round"/><path d="M9.13 -16.72L8.15 -16.28L9.83 -19.39L11.02 -19.92Z" fill="#c24f14" stroke="#c24f14" stroke-width="0.34" stroke-linejoin="round"/><path d="M-8.15 -16.28L-9.13 -16.72L-11.02 -19.92L-9.83 -19.39Z" fill="#ec6220" stroke="#ec6220" stroke-width="0.34" stroke-linejoin="round"/><path d="M-15.62 -41.29L-15.44 -42.07L-12.06 -44.83L-12.2 -44.22Z" fill="#f26522" stroke="#f26522" stroke-width="0.34" stroke-linejoin="round"/><path d="M15.44 -42.07L15.62 -41.29L12.2 -44.22L12.06 -44.83Z" fill="#dc5b1c" stroke="#dc5b1c" stroke-width="0.34" stroke-linejoin="round"/><path d="M-11.51 -46.02L-11.1 -46.59L-6.66 -47.59L-6.91 -47.25Z" fill="#f26522" stroke="#f26522" stroke-width="0.34" stroke-linejoin="round"/><path d="M11.1 -46.59L11.51 -46.02L6.91 -47.25L6.66 -47.59Z" fill="#e9611f" stroke="#e9611f" stroke-width="0.34" stroke-linejoin="round"/><path d="M8.15 -16.28L7.1 -15.9L8.57 -18.93L9.83 -19.39Z" fill="#c65115" stroke="#c65115" stroke-width="0.34" stroke-linejoin="round"/><path d="M-7.1 -15.9L-8.15 -16.28L-9.83 -19.39L-8.57 -18.93Z" fill="#e8601f" stroke="#e8601f" stroke-width="0.34" stroke-linejoin="round"/><path d="M17.75 -29.25L17.26 -28.37L16.69 -32.99L17.15 -33.85Z" fill="#c24f14" stroke="#c24f14" stroke-width="0.34" stroke-linejoin="round"/><path d="M-17.26 -28.37L-17.75 -29.25L-17.15 -33.85L-16.69 -32.99Z" fill="#f26522" stroke="#f26522" stroke-width="0.34" stroke-linejoin="round"/><path d="M-14.05 -21.82L-14.85 -22.55L-15.91 -26.7L-15.05 -25.92Z" fill="#f26522" stroke="#f26522" stroke-width="0.34" stroke-linejoin="round"/><path d="M14.85 -22.55L14.05 -21.82L15.05 -25.92L15.91 -26.7Z" fill="#bc4c12" stroke="#bc4c12" stroke-width="0.34" stroke-linejoin="round"/><path d="M17.69 -35.61L17.49 -34.72L15.44 -38.93L15.62 -39.71Z" fill="#cf5518" stroke="#cf5518" stroke-width="0.34" stroke-linejoin="round"/><path d="M-17.49 -34.72L-17.69 -35.61L-15.62 -39.71L-15.44 -38.93Z" fill="#f26522" stroke="#f26522" stroke-width="0.34" stroke-linejoin="round"/><path d="M-6 -15.57L-7.1 -15.9L-8.57 -18.93L-7.25 -18.53Z" fill="#e55f1e" stroke="#e55f1e" stroke-width="0.34" stroke-linejoin="round"/><path d="M7.1 -15.9L6 -15.57L7.25 -18.53L8.57 -18.93Z" fill="#c95216" stroke="#c95216" stroke-width="0.34" stroke-linejoin="round"/><path d="M11.51 -46.02L11.83 -45.43L7.1 -46.9L6.91 -47.25Z" fill="#e7601f" stroke="#e7601f" stroke-width="0.34" stroke-linejoin="round"/><path d="M-11.83 -45.43L-11.51 -46.02L-6.91 -47.25L-7.1 -46.9Z" fill="#f26522" stroke="#f26522" stroke-width="0.34" stroke-linejoin="round"/><path d="M-15.68 -40.5L-15.62 -41.29L-12.2 -44.22L-12.25 -43.6Z" fill="#f26522" stroke="#f26522" stroke-width="0.34" stroke-linejoin="round"/><path d="M15.62 -41.29L15.68 -40.5L12.25 -43.6L12.2 -44.22Z" fill="#db5a1b" stroke="#db5a1b" stroke-width="0.34" stroke-linejoin="round"/><path d="M-4.86 -15.29L-6 -15.57L-7.25 -18.53L-5.86 -18.2Z" fill="#e25e1d" stroke="#e25e1d" stroke-width="0.34" stroke-linejoin="round"/><path d="M6 -15.57L4.86 -15.29L5.86 -18.2L7.25 -18.53Z" fill="#cc5317" stroke="#cc5317" stroke-width="0.34" stroke-linejoin="round"/><path d="M-0.64 -50.03L0 -50.04L0 -46.6L0 -46.6Z" fill="#f26522" stroke="#f26522" stroke-width="0.34" stroke-linejoin="round"/><path d="M0 -50.04L0.64 -50.03L0 -46.6L0 -46.6Z" fill="#f26522" stroke="#f26522" stroke-width="0.34" stroke-linejoin="round"/><path d="M0.64 -50.03L1.28 -49.98L0 -46.6L0 -46.6Z" fill="#f26522" stroke="#f26522" stroke-width="0.34" stroke-linejoin="round"/><path d="M-1.28 -49.98L-0.64 -50.03L0 -46.6L0 -46.6Z" fill="#f26522" stroke="#f26522" stroke-width="0.34" stroke-linejoin="round"/><path d="M-1.9 -49.9L-1.28 -49.98L0 -46.6L0 -46.6Z" fill="#f26522" stroke="#f26522" stroke-width="0.34" stroke-linejoin="round"/><path d="M1.28 -49.98L1.9 -49.9L0 -46.6L0 -46.6Z" fill="#f26522" stroke="#f26522" stroke-width="0.34" stroke-linejoin="round"/><path d="M-2.51 -49.79L-1.9 -49.9L0 -46.6L0 -46.6Z" fill="#f26522" stroke="#f26522" stroke-width="0.34" stroke-linejoin="round"/><path d="M1.9 -49.9L2.51 -49.79L0 -46.6L0 -46.6Z" fill="#f26522" stroke="#f26522" stroke-width="0.34" stroke-linejoin="round"/><path d="M-13.13 -21.14L-14.05 -21.82L-15.05 -25.92L-14.07 -25.18Z" fill="#f26522" stroke="#f26522" stroke-width="0.34" stroke-linejoin="round"/><path d="M14.05 -21.82L13.13 -21.14L14.07 -25.18L15.05 -25.92Z" fill="#bc4c12" stroke="#bc4c12" stroke-width="0.34" stroke-linejoin="round"/><path d="M17.26 -28.37L16.65 -27.52L16.09 -32.17L16.69 -32.99Z" fill="#c24f14" stroke="#c24f14" stroke-width="0.34" stroke-linejoin="round"/><path d="M-16.65 -27.52L-17.26 -28.37L-16.69 -32.99L-16.09 -32.17Z" fill="#f26522" stroke="#f26522" stroke-width="0.34" stroke-linejoin="round"/><path d="M-12.06 -44.83L-11.83 -45.43L-7.1 -46.9L-7.24 -46.54Z" fill="#f26522" stroke="#f26522" stroke-width="0.34" stroke-linejoin="round"/><path d="M11.83 -45.43L12.06 -44.83L7.24 -46.54L7.1 -46.9Z" fill="#e65f1e" stroke="#e65f1e" stroke-width="0.34" stroke-linejoin="round"/><path d="M-3.11 -49.65L-2.51 -49.79L0 -46.6L0 -46.6Z" fill="#f26522" stroke="#f26522" stroke-width="0.34" stroke-linejoin="round"/><path d="M2.51 -49.79L3.11 -49.65L0 -46.6L0 -46.6Z" fill="#f26522" stroke="#f26522" stroke-width="0.34" stroke-linejoin="round"/><path d="M3.11 -49.65L3.67 -49.47L0 -46.6L0 -46.6Z" fill="#f26522" stroke="#f26522" stroke-width="0.34" stroke-linejoin="round"/><path d="M-3.67 -49.47L-3.11 -49.65L0 -46.6L0 -46.6Z" fill="#f26522" stroke="#f26522" stroke-width="0.34" stroke-linejoin="round"/><path d="M-3.68 -15.08L-4.86 -15.29L-5.86 -18.2L-4.44 -17.94Z" fill="#e05c1d" stroke="#e05c1d" stroke-width="0.34" stroke-linejoin="round"/><path d="M4.86 -15.29L3.68 -15.08L4.44 -17.94L5.86 -18.2Z" fill="#ce5517" stroke="#ce5517" stroke-width="0.34" stroke-linejoin="round"/><path d="M-4.21 -49.28L-3.67 -49.47L0 -46.6L0 -46.6Z" fill="#f26522" stroke="#f26522" stroke-width="0.34" stroke-linejoin="round"/><path d="M3.67 -49.47L4.21 -49.28L0 -46.6L0 -46.6Z" fill="#f26522" stroke="#f26522" stroke-width="0.34" stroke-linejoin="round"/><path d="M17.49 -34.72L17.15 -33.85L15.14 -38.16L15.44 -38.93Z" fill="#ce5417" stroke="#ce5417" stroke-width="0.34" stroke-linejoin="round"/><path d="M-17.15 -33.85L-17.49 -34.72L-15.44 -38.93L-15.14 -38.16Z" fill="#f26522" stroke="#f26522" stroke-width="0.34" stroke-linejoin="round"/><path d="M15.68 -40.5L15.62 -39.71L12.2 -42.98L12.25 -43.6Z" fill="#da5a1b" stroke="#da5a1b" stroke-width="0.34" stroke-linejoin="round"/><path d="M-15.62 -39.71L-15.68 -40.5L-12.25 -43.6L-12.2 -42.98Z" fill="#f26522" stroke="#f26522" stroke-width="0.34" stroke-linejoin="round"/><path d="M-4.72 -49.05L-4.21 -49.28L0 -46.6L0 -46.6Z" fill="#f26522" stroke="#f26522" stroke-width="0.34" stroke-linejoin="round"/><path d="M4.21 -49.28L4.72 -49.05L0 -46.6L0 -46.6Z" fill="#f26522" stroke="#f26522" stroke-width="0.34" stroke-linejoin="round"/><path d="M3.68 -15.08L2.47 -14.92L2.98 -17.75L4.44 -17.94Z" fill="#d15618" stroke="#d15618" stroke-width="0.34" stroke-linejoin="round"/><path d="M-2.47 -14.92L-3.68 -15.08L-4.44 -17.94L-2.98 -17.75Z" fill="#dd5b1c" stroke="#dd5b1c" stroke-width="0.34" stroke-linejoin="round"/><path d="M-5.2 -48.8L-4.72 -49.05L0 -46.6L0 -46.6Z" fill="#f26522" stroke="#f26522" stroke-width="0.34" stroke-linejoin="round"/><path d="M4.72 -49.05L5.2 -48.8L0 -46.6L0 -46.6Z" fill="#f26522" stroke="#f26522" stroke-width="0.34" stroke-linejoin="round"/><path d="M2.47 -14.92L1.24 -14.83L1.49 -17.64L2.98 -17.75Z" fill="#d35719" stroke="#d35719" stroke-width="0.34" stroke-linejoin="round"/><path d="M-1.24 -14.83L-2.47 -14.92L-2.98 -17.75L-1.49 -17.64Z" fill="#db5a1b" stroke="#db5a1b" stroke-width="0.34" stroke-linejoin="round"/><path d="M-12.2 -44.22L-12.06 -44.83L-7.24 -46.54L-7.32 -46.17Z" fill="#f26522" stroke="#f26522" stroke-width="0.34" stroke-linejoin="round"/><path d="M12.06 -44.83L12.2 -44.22L7.32 -46.17L7.24 -46.54Z" fill="#e45f1e" stroke="#e45f1e" stroke-width="0.34" stroke-linejoin="round"/><path d="M1.24 -14.83L0 -14.8L0 -17.6L1.49 -17.64Z" fill="#d6581a" stroke="#d6581a" stroke-width="0.34" stroke-linejoin="round"/><path d="M0 -14.8L-1.24 -14.83L-1.49 -17.64L0 -17.6Z" fill="#d8591a" stroke="#d8591a" stroke-width="0.34" stroke-linejoin="round"/><path d="M-5.63 -48.53L-5.2 -48.8L0 -46.6L0 -46.6Z" fill="#f26522" stroke="#f26522" stroke-width="0.34" stroke-linejoin="round"/><path d="M5.2 -48.8L5.63 -48.53L0 -46.6L0 -46.6Z" fill="#f26522" stroke="#f26522" stroke-width="0.34" stroke-linejoin="round"/><path d="M-12.12 -20.5L-13.13 -21.14L-14.07 -25.18L-12.99 -24.5Z" fill="#f26522" stroke="#f26522" stroke-width="0.34" stroke-linejoin="round"/><path d="M13.13 -21.14L12.12 -20.5L12.99 -24.5L14.07 -25.18Z" fill="#bc4c12" stroke="#bc4c12" stroke-width="0.34" stroke-linejoin="round"/><path d="M-6.02 -48.23L-5.63 -48.53L0 -46.6L0 -46.6Z" fill="#f26522" stroke="#f26522" stroke-width="0.34" stroke-linejoin="round"/><path d="M5.63 -48.53L6.02 -48.23L0 -46.6L0 -46.6Z" fill="#f16522" stroke="#f16522" stroke-width="0.34" stroke-linejoin="round"/><path d="M-15.91 -26.7L-16.65 -27.52L-16.09 -32.17L-15.38 -31.37Z" fill="#f26522" stroke="#f26522" stroke-width="0.34" stroke-linejoin="round"/><path d="M16.65 -27.52L15.91 -26.7L15.38 -31.37L16.09 -32.17Z" fill="#c24f14" stroke="#c24f14" stroke-width="0.34" stroke-linejoin="round"/><path d="M-6.36 -47.92L-6.02 -48.23L0 -46.6L0 -46.6Z" fill="#f26522" stroke="#f26522" stroke-width="0.34" stroke-linejoin="round"/><path d="M6.02 -48.23L6.36 -47.92L0 -46.6L0 -46.6Z" fill="#f06422" stroke="#f06422" stroke-width="0.34" stroke-linejoin="round"/><path d="M-15.44 -38.93L-15.62 -39.71L-12.2 -42.98L-12.06 -42.37Z" fill="#f26522" stroke="#f26522" stroke-width="0.34" stroke-linejoin="round"/><path d="M15.62 -39.71L15.44 -38.93L12.06 -42.37L12.2 -42.98Z" fill="#d9591b" stroke="#d9591b" stroke-width="0.34" stroke-linejoin="round"/><path d="M12.2 -44.22L12.25 -43.6L7.35 -45.8L7.32 -46.17Z" fill="#e35e1e" stroke="#e35e1e" stroke-width="0.34" stroke-linejoin="round"/><path d="M-12.25 -43.6L-12.2 -44.22L-7.32 -46.17L-7.35 -45.8Z" fill="#f26522" stroke="#f26522" stroke-width="0.34" stroke-linejoin="round"/><path d="M-6.66 -47.59L-6.36 -47.92L0 -46.6L0 -46.6Z" fill="#f26522" stroke="#f26522" stroke-width="0.34" stroke-linejoin="round"/><path d="M6.36 -47.92L6.66 -47.59L0 -46.6L0 -46.6Z" fill="#f06421" stroke="#f06421" stroke-width="0.34" stroke-linejoin="round"/><path d="M17.15 -33.85L16.69 -32.99L14.73 -37.4L15.14 -38.16Z" fill="#cd5417" stroke="#cd5417" stroke-width="0.34" stroke-linejoin="round"/><path d="M-16.69 -32.99L-17.15 -33.85L-15.14 -38.16L-14.73 -37.4Z" fill="#f26522" stroke="#f26522" stroke-width="0.34" stroke-linejoin="round"/><path d="M-6.91 -47.25L-6.66 -47.59L0 -46.6L0 -46.6Z" fill="#f26522" stroke="#f26522" stroke-width="0.34" stroke-linejoin="round"/><path d="M6.66 -47.59L6.91 -47.25L0 -46.6L0 -46.6Z" fill="#ef6421" stroke="#ef6421" stroke-width="0.34" stroke-linejoin="round"/><path d="M12.12 -20.5L11.02 -19.92L11.81 -23.87L12.99 -24.5Z" fill="#be4d13" stroke="#be4d13" stroke-width="0.34" stroke-linejoin="round"/><path d="M-11.02 -19.92L-12.12 -20.5L-12.99 -24.5L-11.81 -23.87Z" fill="#f06421" stroke="#f06421" stroke-width="0.34" stroke-linejoin="round"/><path d="M-7.1 -46.9L-6.91 -47.25L0 -46.6L0 -46.6Z" fill="#f26522" stroke="#f26522" stroke-width="0.34" stroke-linejoin="round"/><path d="M6.91 -47.25L7.1 -46.9L0 -46.6L0 -46.6Z" fill="#ef6421" stroke="#ef6421" stroke-width="0.34" stroke-linejoin="round"/><path d="M12.25 -43.6L12.2 -42.98L7.32 -45.43L7.35 -45.8Z" fill="#e25e1d" stroke="#e25e1d" stroke-width="0.34" stroke-linejoin="round"/><path d="M-12.2 -42.98L-12.25 -43.6L-7.35 -45.8L-7.32 -45.43Z" fill="#f26522" stroke="#f26522" stroke-width="0.34" stroke-linejoin="round"/><path d="M-7.24 -46.54L-7.1 -46.9L0 -46.6L0 -46.6Z" fill="#f26522" stroke="#f26522" stroke-width="0.34" stroke-linejoin="round"/><path d="M7.1 -46.9L7.24 -46.54L0 -46.6L0 -46.6Z" fill="#ee6321" stroke="#ee6321" stroke-width="0.34" stroke-linejoin="round"/><path d="M-15.05 -25.92L-15.91 -26.7L-15.38 -31.37L-14.55 -30.62Z" fill="#f26522" stroke="#f26522" stroke-width="0.34" stroke-linejoin="round"/><path d="M15.91 -26.7L15.05 -25.92L14.55 -30.62L15.38 -31.37Z" fill="#c24f14" stroke="#c24f14" stroke-width="0.34" stroke-linejoin="round"/><path d="M15.44 -38.93L15.14 -38.16L11.83 -41.77L12.06 -42.37Z" fill="#d8591a" stroke="#d8591a" stroke-width="0.34" stroke-linejoin="round"/><path d="M-15.14 -38.16L-15.44 -38.93L-12.06 -42.37L-11.83 -41.77Z" fill="#f26522" stroke="#f26522" stroke-width="0.34" stroke-linejoin="round"/><path d="M7.24 -46.54L7.32 -46.17L0 -46.6L0 -46.6Z" fill="#ee6321" stroke="#ee6321" stroke-width="0.34" stroke-linejoin="round"/><path d="M-7.32 -46.17L-7.24 -46.54L0 -46.6L0 -46.6Z" fill="#f26522" stroke="#f26522" stroke-width="0.34" stroke-linejoin="round"/><path d="M-16.09 -32.17L-16.69 -32.99L-14.73 -37.4L-14.21 -36.67Z" fill="#f26522" stroke="#f26522" stroke-width="0.34" stroke-linejoin="round"/><path d="M16.69 -32.99L16.09 -32.17L14.21 -36.67L14.73 -37.4Z" fill="#cd5417" stroke="#cd5417" stroke-width="0.34" stroke-linejoin="round"/><path d="M11.02 -19.92L9.83 -19.39L10.54 -23.31L11.81 -23.87Z" fill="#c24f14" stroke="#c24f14" stroke-width="0.34" stroke-linejoin="round"/><path d="M-9.83 -19.39L-11.02 -19.92L-11.81 -23.87L-10.54 -23.31Z" fill="#ec6220" stroke="#ec6220" stroke-width="0.34" stroke-linejoin="round"/><path d="M-7.35 -45.8L-7.32 -46.17L0 -46.6L0 -46.6Z" fill="#f26522" stroke="#f26522" stroke-width="0.34" stroke-linejoin="round"/><path d="M7.32 -46.17L7.35 -45.8L0 -46.6L0 -46.6Z" fill="#ee6321" stroke="#ee6321" stroke-width="0.34" stroke-linejoin="round"/><path d="M12.2 -42.98L12.06 -42.37L7.24 -45.06L7.32 -45.43Z" fill="#e25d1d" stroke="#e25d1d" stroke-width="0.34" stroke-linejoin="round"/><path d="M-12.06 -42.37L-12.2 -42.98L-7.32 -45.43L-7.24 -45.06Z" fill="#f26522" stroke="#f26522" stroke-width="0.34" stroke-linejoin="round"/><path d="M-7.32 -45.43L-7.35 -45.8L0 -46.6L0 -46.6Z" fill="#f26522" stroke="#f26522" stroke-width="0.34" stroke-linejoin="round"/><path d="M7.35 -45.8L7.32 -45.43L0 -46.6L0 -46.6Z" fill="#ed6321" stroke="#ed6321" stroke-width="0.34" stroke-linejoin="round"/><path d="M7.32 -45.43L7.24 -45.06L0 -46.6L0 -46.6Z" fill="#ed6320" stroke="#ed6320" stroke-width="0.34" stroke-linejoin="round"/><path d="M-7.24 -45.06L-7.32 -45.43L0 -46.6L0 -46.6Z" fill="#f26522" stroke="#f26522" stroke-width="0.34" stroke-linejoin="round"/><path d="M15.14 -38.16L14.73 -37.4L11.51 -41.18L11.83 -41.77Z" fill="#d7591a" stroke="#d7591a" stroke-width="0.34" stroke-linejoin="round"/><path d="M-14.73 -37.4L-15.14 -38.16L-11.83 -41.77L-11.51 -41.18Z" fill="#f26522" stroke="#f26522" stroke-width="0.34" stroke-linejoin="round"/><path d="M-14.07 -25.18L-15.05 -25.92L-14.55 -30.62L-13.6 -29.91Z" fill="#f26522" stroke="#f26522" stroke-width="0.34" stroke-linejoin="round"/><path d="M15.05 -25.92L14.07 -25.18L13.6 -29.91L14.55 -30.62Z" fill="#c14f14" stroke="#c14f14" stroke-width="0.34" stroke-linejoin="round"/><path d="M9.83 -19.39L8.57 -18.93L9.19 -22.81L10.54 -23.31Z" fill="#c65115" stroke="#c65115" stroke-width="0.34" stroke-linejoin="round"/><path d="M-8.57 -18.93L-9.83 -19.39L-10.54 -23.31L-9.19 -22.81Z" fill="#e8601f" stroke="#e8601f" stroke-width="0.34" stroke-linejoin="round"/><path d="M-7.1 -44.7L-7.24 -45.06L0 -46.6L0 -46.6Z" fill="#f26522" stroke="#f26522" stroke-width="0.34" stroke-linejoin="round"/><path d="M7.24 -45.06L7.1 -44.7L0 -46.6L0 -46.6Z" fill="#ed6220" stroke="#ed6220" stroke-width="0.34" stroke-linejoin="round"/><path d="M12.06 -42.37L11.83 -41.77L7.1 -44.7L7.24 -45.06Z" fill="#e15d1d" stroke="#e15d1d" stroke-width="0.34" stroke-linejoin="round"/><path d="M-11.83 -41.77L-12.06 -42.37L-7.24 -45.06L-7.1 -44.7Z" fill="#f26522" stroke="#f26522" stroke-width="0.34" stroke-linejoin="round"/><path d="M16.09 -32.17L15.38 -31.37L13.58 -35.97L14.21 -36.67Z" fill="#cd5417" stroke="#cd5417" stroke-width="0.34" stroke-linejoin="round"/><path d="M-15.38 -31.37L-16.09 -32.17L-14.21 -36.67L-13.58 -35.97Z" fill="#f26522" stroke="#f26522" stroke-width="0.34" stroke-linejoin="round"/><path d="M-6.91 -44.35L-7.1 -44.7L0 -46.6L0 -46.6Z" fill="#f26522" stroke="#f26522" stroke-width="0.34" stroke-linejoin="round"/><path d="M7.1 -44.7L6.91 -44.35L0 -46.6L0 -46.6Z" fill="#ec6220" stroke="#ec6220" stroke-width="0.34" stroke-linejoin="round"/><path d="M-6.66 -44.01L-6.91 -44.35L0 -46.6L0 -46.6Z" fill="#f26522" stroke="#f26522" stroke-width="0.34" stroke-linejoin="round"/><path d="M6.91 -44.35L6.66 -44.01L0 -46.6L0 -46.6Z" fill="#ec6220" stroke="#ec6220" stroke-width="0.34" stroke-linejoin="round"/><path d="M8.57 -18.93L7.25 -18.53L7.76 -22.39L9.19 -22.81Z" fill="#c95216" stroke="#c95216" stroke-width="0.34" stroke-linejoin="round"/><path d="M-7.25 -18.53L-8.57 -18.93L-9.19 -22.81L-7.76 -22.39Z" fill="#e55f1e" stroke="#e55f1e" stroke-width="0.34" stroke-linejoin="round"/><path d="M11.83 -41.77L11.51 -41.18L6.91 -44.35L7.1 -44.7Z" fill="#e05d1d" stroke="#e05d1d" stroke-width="0.34" stroke-linejoin="round"/><path d="M-11.51 -41.18L-11.83 -41.77L-7.1 -44.7L-6.91 -44.35Z" fill="#f26522" stroke="#f26522" stroke-width="0.34" stroke-linejoin="round"/><path d="M-6.36 -43.68L-6.66 -44.01L0 -46.6L0 -46.6Z" fill="#f26522" stroke="#f26522" stroke-width="0.34" stroke-linejoin="round"/><path d="M6.66 -44.01L6.36 -43.68L0 -46.6L0 -46.6Z" fill="#ec6220" stroke="#ec6220" stroke-width="0.34" stroke-linejoin="round"/><path d="M-14.21 -36.67L-14.73 -37.4L-11.51 -41.18L-11.1 -40.61Z" fill="#f26522" stroke="#f26522" stroke-width="0.34" stroke-linejoin="round"/><path d="M14.73 -37.4L14.21 -36.67L11.1 -40.61L11.51 -41.18Z" fill="#d7581a" stroke="#d7581a" stroke-width="0.34" stroke-linejoin="round"/><path d="M-12.99 -24.5L-14.07 -25.18L-13.6 -29.91L-12.56 -29.25Z" fill="#f26522" stroke="#f26522" stroke-width="0.34" stroke-linejoin="round"/><path d="M14.07 -25.18L12.99 -24.5L12.56 -29.25L13.6 -29.91Z" fill="#c14f14" stroke="#c14f14" stroke-width="0.34" stroke-linejoin="round"/><path d="M-6.02 -43.37L-6.36 -43.68L0 -46.6L0 -46.6Z" fill="#f26522" stroke="#f26522" stroke-width="0.34" stroke-linejoin="round"/><path d="M6.36 -43.68L6.02 -43.37L0 -46.6L0 -46.6Z" fill="#ec6220" stroke="#ec6220" stroke-width="0.34" stroke-linejoin="round"/><path d="M7.25 -18.53L5.86 -18.2L6.28 -22.03L7.76 -22.39Z" fill="#cc5317" stroke="#cc5317" stroke-width="0.34" stroke-linejoin="round"/><path d="M-5.86 -18.2L-7.25 -18.53L-7.76 -22.39L-6.28 -22.03Z" fill="#e25e1d" stroke="#e25e1d" stroke-width="0.34" stroke-linejoin="round"/><path d="M-5.63 -43.07L-6.02 -43.37L0 -46.6L0 -46.6Z" fill="#f26522" stroke="#f26522" stroke-width="0.34" stroke-linejoin="round"/><path d="M6.02 -43.37L5.63 -43.07L0 -46.6L0 -46.6Z" fill="#ec6220" stroke="#ec6220" stroke-width="0.34" stroke-linejoin="round"/><path d="M-14.55 -30.62L-15.38 -31.37L-13.58 -35.97L-12.84 -35.31Z" fill="#f26522" stroke="#f26522" stroke-width="0.34" stroke-linejoin="round"/><path d="M15.38 -31.37L14.55 -30.62L12.84 -35.31L13.58 -35.97Z" fill="#cc5417" stroke="#cc5417" stroke-width="0.34" stroke-linejoin="round"/><path d="M11.51 -41.18L11.1 -40.61L6.66 -44.01L6.91 -44.35Z" fill="#e05d1d" stroke="#e05d1d" stroke-width="0.34" stroke-linejoin="round"/><path d="M-11.1 -40.61L-11.51 -41.18L-6.91 -44.35L-6.66 -44.01Z" fill="#f26522" stroke="#f26522" stroke-width="0.34" stroke-linejoin="round"/><path d="M-5.2 -42.8L-5.63 -43.07L0 -46.6L0 -46.6Z" fill="#f26522" stroke="#f26522" stroke-width="0.34" stroke-linejoin="round"/><path d="M5.63 -43.07L5.2 -42.8L0 -46.6L0 -46.6Z" fill="#ec6220" stroke="#ec6220" stroke-width="0.34" stroke-linejoin="round"/><path d="M5.86 -18.2L4.44 -17.94L4.75 -21.75L6.28 -22.03Z" fill="#ce5517" stroke="#ce5517" stroke-width="0.34" stroke-linejoin="round"/><path d="M-4.44 -17.94L-5.86 -18.2L-6.28 -22.03L-4.75 -21.75Z" fill="#e05c1d" stroke="#e05c1d" stroke-width="0.34" stroke-linejoin="round"/><path d="M5.2 -42.8L4.72 -42.55L0 -46.6L0 -46.6Z" fill="#ec6220" stroke="#ec6220" stroke-width="0.34" stroke-linejoin="round"/><path d="M-4.72 -42.55L-5.2 -42.8L0 -46.6L0 -46.6Z" fill="#f26522" stroke="#f26522" stroke-width="0.34" stroke-linejoin="round"/><path d="M14.21 -36.67L13.58 -35.97L10.61 -40.06L11.1 -40.61Z" fill="#d6581a" stroke="#d6581a" stroke-width="0.34" stroke-linejoin="round"/><path d="M-13.58 -35.97L-14.21 -36.67L-11.1 -40.61L-10.61 -40.06Z" fill="#f26522" stroke="#f26522" stroke-width="0.34" stroke-linejoin="round"/><path d="M4.72 -42.55L4.21 -42.32L0 -46.6L0 -46.6Z" fill="#ec6220" stroke="#ec6220" stroke-width="0.34" stroke-linejoin="round"/><path d="M-4.21 -42.32L-4.72 -42.55L0 -46.6L0 -46.6Z" fill="#f16522" stroke="#f16522" stroke-width="0.34" stroke-linejoin="round"/><path d="M12.99 -24.5L11.81 -23.87L11.42 -28.65L12.56 -29.25Z" fill="#c34f14" stroke="#c34f14" stroke-width="0.34" stroke-linejoin="round"/><path d="M-11.81 -23.87L-12.99 -24.5L-12.56 -29.25L-11.42 -28.65Z" fill="#f06421" stroke="#f06421" stroke-width="0.34" stroke-linejoin="round"/><path d="M4.44 -17.94L2.98 -17.75L3.19 -21.55L4.75 -21.75Z" fill="#d15618" stroke="#d15618" stroke-width="0.34" stroke-linejoin="round"/><path d="M-2.98 -17.75L-4.44 -17.94L-4.75 -21.75L-3.19 -21.55Z" fill="#dd5b1c" stroke="#dd5b1c" stroke-width="0.34" stroke-linejoin="round"/><path d="M4.21 -42.32L3.67 -42.13L0 -46.6L0 -46.6Z" fill="#ec6220" stroke="#ec6220" stroke-width="0.34" stroke-linejoin="round"/><path d="M-3.67 -42.13L-4.21 -42.32L0 -46.6L0 -46.6Z" fill="#f16422" stroke="#f16422" stroke-width="0.34" stroke-linejoin="round"/><path d="M11.1 -40.61L10.61 -40.06L6.36 -43.68L6.66 -44.01Z" fill="#df5c1c" stroke="#df5c1c" stroke-width="0.34" stroke-linejoin="round"/><path d="M-10.61 -40.06L-11.1 -40.61L-6.66 -44.01L-6.36 -43.68Z" fill="#f26522" stroke="#f26522" stroke-width="0.34" stroke-linejoin="round"/><path d="M3.67 -42.13L3.11 -41.95L0 -46.6L0 -46.6Z" fill="#ec6220" stroke="#ec6220" stroke-width="0.34" stroke-linejoin="round"/><path d="M-3.11 -41.95L-3.67 -42.13L0 -46.6L0 -46.6Z" fill="#f06421" stroke="#f06421" stroke-width="0.34" stroke-linejoin="round"/><path d="M2.98 -17.75L1.49 -17.64L1.6 -21.43L3.19 -21.55Z" fill="#d35719" stroke="#d35719" stroke-width="0.34" stroke-linejoin="round"/><path d="M-1.49 -17.64L-2.98 -17.75L-3.19 -21.55L-1.6 -21.43Z" fill="#db5a1b" stroke="#db5a1b" stroke-width="0.34" stroke-linejoin="round"/><path d="M3.11 -41.95L2.51 -41.81L0 -46.6L0 -46.6Z" fill="#ec6220" stroke="#ec6220" stroke-width="0.34" stroke-linejoin="round"/><path d="M-2.51 -41.81L-3.11 -41.95L0 -46.6L0 -46.6Z" fill="#f06421" stroke="#f06421" stroke-width="0.34" stroke-linejoin="round"/><path d="M1.49 -17.64L0 -17.6L0 -21.39L1.6 -21.43Z" fill="#d6581a" stroke="#d6581a" stroke-width="0.34" stroke-linejoin="round"/><path d="M0 -17.6L-1.49 -17.64L-1.6 -21.43L0 -21.39Z" fill="#d8591a" stroke="#d8591a" stroke-width="0.34" stroke-linejoin="round"/><path d="M-13.6 -29.91L-14.55 -30.62L-12.84 -35.31L-12.01 -34.68Z" fill="#f26522" stroke="#f26522" stroke-width="0.34" stroke-linejoin="round"/><path d="M14.55 -30.62L13.6 -29.91L12.01 -34.68L12.84 -35.31Z" fill="#cc5417" stroke="#cc5417" stroke-width="0.34" stroke-linejoin="round"/><path d="M2.51 -41.81L1.9 -41.7L0 -46.6L0 -46.6Z" fill="#ed6220" stroke="#ed6220" stroke-width="0.34" stroke-linejoin="round"/><path d="M-1.9 -41.7L-2.51 -41.81L0 -46.6L0 -46.6Z" fill="#ef6421" stroke="#ef6421" stroke-width="0.34" stroke-linejoin="round"/><path d="M1.9 -41.7L1.28 -41.62L0 -46.6L0 -46.6Z" fill="#ed6320" stroke="#ed6320" stroke-width="0.34" stroke-linejoin="round"/><path d="M-1.28 -41.62L-1.9 -41.7L0 -46.6L0 -46.6Z" fill="#ef6321" stroke="#ef6321" stroke-width="0.34" stroke-linejoin="round"/><path d="M1.28 -41.62L0.64 -41.57L0 -46.6L0 -46.6Z" fill="#ed6321" stroke="#ed6321" stroke-width="0.34" stroke-linejoin="round"/><path d="M-0.64 -41.57L-1.28 -41.62L0 -46.6L0 -46.6Z" fill="#ee6321" stroke="#ee6321" stroke-width="0.34" stroke-linejoin="round"/><path d="M0.64 -41.57L0 -41.56L0 -46.6L0 -46.6Z" fill="#ee6321" stroke="#ee6321" stroke-width="0.34" stroke-linejoin="round"/><path d="M0 -41.56L-0.64 -41.57L0 -46.6L0 -46.6Z" fill="#ee6321" stroke="#ee6321" stroke-width="0.34" stroke-linejoin="round"/><path d="M-12.84 -35.31L-13.58 -35.97L-10.61 -40.06L-10.03 -39.54Z" fill="#f26522" stroke="#f26522" stroke-width="0.34" stroke-linejoin="round"/><path d="M13.58 -35.97L12.84 -35.31L10.03 -39.54L10.61 -40.06Z" fill="#d6581a" stroke="#d6581a" stroke-width="0.34" stroke-linejoin="round"/><path d="M-10.03 -39.54L-10.61 -40.06L-6.36 -43.68L-6.02 -43.37Z" fill="#f26522" stroke="#f26522" stroke-width="0.34" stroke-linejoin="round"/><path d="M10.61 -40.06L10.03 -39.54L6.02 -43.37L6.36 -43.68Z" fill="#df5c1c" stroke="#df5c1c" stroke-width="0.34" stroke-linejoin="round"/><path d="M11.81 -23.87L10.54 -23.31L10.19 -28.1L11.42 -28.65Z" fill="#c75115" stroke="#c75115" stroke-width="0.34" stroke-linejoin="round"/><path d="M-10.54 -23.31L-11.81 -23.87L-11.42 -28.65L-10.19 -28.1Z" fill="#ec6220" stroke="#ec6220" stroke-width="0.34" stroke-linejoin="round"/><path d="M13.6 -29.91L12.56 -29.25L11.09 -34.1L12.01 -34.68Z" fill="#cc5317" stroke="#cc5317" stroke-width="0.34" stroke-linejoin="round"/><path d="M-12.56 -29.25L-13.6 -29.91L-12.01 -34.68L-11.09 -34.1Z" fill="#f26522" stroke="#f26522" stroke-width="0.34" stroke-linejoin="round"/><path d="M-9.38 -39.05L-10.03 -39.54L-6.02 -43.37L-5.63 -43.07Z" fill="#f26522" stroke="#f26522" stroke-width="0.34" stroke-linejoin="round"/><path d="M10.03 -39.54L9.38 -39.05L5.63 -43.07L6.02 -43.37Z" fill="#df5c1c" stroke="#df5c1c" stroke-width="0.34" stroke-linejoin="round"/><path d="M10.54 -23.31L9.19 -22.81L8.88 -27.62L10.19 -28.1Z" fill="#ca5216" stroke="#ca5216" stroke-width="0.34" stroke-linejoin="round"/><path d="M-9.19 -22.81L-10.54 -23.31L-10.19 -28.1L-8.88 -27.62Z" fill="#e9611f" stroke="#e9611f" stroke-width="0.34" stroke-linejoin="round"/><path d="M-12.01 -34.68L-12.84 -35.31L-10.03 -39.54L-9.38 -39.05Z" fill="#f26522" stroke="#f26522" stroke-width="0.34" stroke-linejoin="round"/><path d="M12.84 -35.31L12.01 -34.68L9.38 -39.05L10.03 -39.54Z" fill="#d6581a" stroke="#d6581a" stroke-width="0.34" stroke-linejoin="round"/><path d="M-8.66 -38.6L-9.38 -39.05L-5.63 -43.07L-5.2 -42.8Z" fill="#f26522" stroke="#f26522" stroke-width="0.34" stroke-linejoin="round"/><path d="M9.38 -39.05L8.66 -38.6L5.2 -42.8L5.63 -43.07Z" fill="#df5c1c" stroke="#df5c1c" stroke-width="0.34" stroke-linejoin="round"/><path d="M12.56 -29.25L11.42 -28.65L10.08 -33.57L11.09 -34.1Z" fill="#cd5417" stroke="#cd5417" stroke-width="0.34" stroke-linejoin="round"/><path d="M-11.42 -28.65L-12.56 -29.25L-11.09 -34.1L-10.08 -33.57Z" fill="#f06422" stroke="#f06422" stroke-width="0.34" stroke-linejoin="round"/><path d="M-7.76 -22.39L-9.19 -22.81L-8.88 -27.62L-7.51 -27.21Z" fill="#e65f1e" stroke="#e65f1e" stroke-width="0.34" stroke-linejoin="round"/><path d="M9.19 -22.81L7.76 -22.39L7.51 -27.21L8.88 -27.62Z" fill="#cc5417" stroke="#cc5417" stroke-width="0.34" stroke-linejoin="round"/><path d="M12.01 -34.68L11.09 -34.1L8.66 -38.6L9.38 -39.05Z" fill="#d6581a" stroke="#d6581a" stroke-width="0.34" stroke-linejoin="round"/><path d="M-11.09 -34.1L-12.01 -34.68L-9.38 -39.05L-8.66 -38.6Z" fill="#f26522" stroke="#f26522" stroke-width="0.34" stroke-linejoin="round"/><path d="M8.66 -38.6L7.87 -38.18L4.72 -42.55L5.2 -42.8Z" fill="#df5c1c" stroke="#df5c1c" stroke-width="0.34" stroke-linejoin="round"/><path d="M-7.87 -38.18L-8.66 -38.6L-5.2 -42.8L-4.72 -42.55Z" fill="#f16522" stroke="#f16522" stroke-width="0.34" stroke-linejoin="round"/><path d="M7.76 -22.39L6.28 -22.03L6.07 -26.87L7.51 -27.21Z" fill="#cf5518" stroke="#cf5518" stroke-width="0.34" stroke-linejoin="round"/><path d="M-6.28 -22.03L-7.76 -22.39L-7.51 -27.21L-6.07 -26.87Z" fill="#e35e1e" stroke="#e35e1e" stroke-width="0.34" stroke-linejoin="round"/><path d="M7.87 -38.18L7.02 -37.81L4.21 -42.32L4.72 -42.55Z" fill="#e05d1d" stroke="#e05d1d" stroke-width="0.34" stroke-linejoin="round"/><path d="M-7.02 -37.81L-7.87 -38.18L-4.72 -42.55L-4.21 -42.32Z" fill="#f06421" stroke="#f06421" stroke-width="0.34" stroke-linejoin="round"/><path d="M-10.19 -28.1L-11.42 -28.65L-10.08 -33.57L-8.99 -33.09Z" fill="#ed6321" stroke="#ed6321" stroke-width="0.34" stroke-linejoin="round"/><path d="M11.42 -28.65L10.19 -28.1L8.99 -33.09L10.08 -33.57Z" fill="#cf5518" stroke="#cf5518" stroke-width="0.34" stroke-linejoin="round"/><path d="M11.09 -34.1L10.08 -33.57L7.87 -38.18L8.66 -38.6Z" fill="#d6581a" stroke="#d6581a" stroke-width="0.34" stroke-linejoin="round"/><path d="M-10.08 -33.57L-11.09 -34.1L-8.66 -38.6L-7.87 -38.18Z" fill="#f16422" stroke="#f16422" stroke-width="0.34" stroke-linejoin="round"/><path d="M6.28 -22.03L4.75 -21.75L4.6 -26.6L6.07 -26.87Z" fill="#d15618" stroke="#d15618" stroke-width="0.34" stroke-linejoin="round"/><path d="M-4.75 -21.75L-6.28 -22.03L-6.07 -26.87L-4.6 -26.6Z" fill="#e15d1d" stroke="#e15d1d" stroke-width="0.34" stroke-linejoin="round"/><path d="M7.02 -37.81L6.12 -37.48L3.67 -42.13L4.21 -42.32Z" fill="#e05d1d" stroke="#e05d1d" stroke-width="0.34" stroke-linejoin="round"/><path d="M-6.12 -37.48L-7.02 -37.81L-4.21 -42.32L-3.67 -42.13Z" fill="#ee6321" stroke="#ee6321" stroke-width="0.34" stroke-linejoin="round"/><path d="M4.75 -21.75L3.19 -21.55L3.08 -26.4L4.6 -26.6Z" fill="#d35719" stroke="#d35719" stroke-width="0.34" stroke-linejoin="round"/><path d="M-3.19 -21.55L-4.75 -21.75L-4.6 -26.6L-3.08 -26.4Z" fill="#df5c1c" stroke="#df5c1c" stroke-width="0.34" stroke-linejoin="round"/><path d="M6.12 -37.48L5.18 -37.19L3.11 -41.95L3.67 -42.13Z" fill="#e15d1d" stroke="#e15d1d" stroke-width="0.34" stroke-linejoin="round"/><path d="M-5.18 -37.19L-6.12 -37.48L-3.67 -42.13L-3.11 -41.95Z" fill="#ed6320" stroke="#ed6320" stroke-width="0.34" stroke-linejoin="round"/><path d="M10.19 -28.1L8.88 -27.62L7.84 -32.66L8.99 -33.09Z" fill="#d15618" stroke="#d15618" stroke-width="0.34" stroke-linejoin="round"/><path d="M-8.88 -27.62L-10.19 -28.1L-8.99 -33.09L-7.84 -32.66Z" fill="#eb6220" stroke="#eb6220" stroke-width="0.34" stroke-linejoin="round"/><path d="M-8.99 -33.09L-10.08 -33.57L-7.87 -38.18L-7.02 -37.81Z" fill="#ef6321" stroke="#ef6321" stroke-width="0.34" stroke-linejoin="round"/><path d="M10.08 -33.57L8.99 -33.09L7.02 -37.81L7.87 -38.18Z" fill="#d8591a" stroke="#d8591a" stroke-width="0.34" stroke-linejoin="round"/><path d="M3.19 -21.55L1.6 -21.43L1.55 -26.29L3.08 -26.4Z" fill="#d6581a" stroke="#d6581a" stroke-width="0.34" stroke-linejoin="round"/><path d="M-1.6 -21.43L-3.19 -21.55L-3.08 -26.4L-1.55 -26.29Z" fill="#dc5b1c" stroke="#dc5b1c" stroke-width="0.34" stroke-linejoin="round"/><path d="M0 -21.39L-1.6 -21.43L-1.55 -26.29L0 -26.25Z" fill="#da5a1b" stroke="#da5a1b" stroke-width="0.34" stroke-linejoin="round"/><path d="M1.6 -21.43L0 -21.39L0 -26.25L1.55 -26.29Z" fill="#d8591a" stroke="#d8591a" stroke-width="0.34" stroke-linejoin="round"/><path d="M5.18 -37.19L4.19 -36.96L2.51 -41.81L3.11 -41.95Z" fill="#e25e1d" stroke="#e25e1d" stroke-width="0.34" stroke-linejoin="round"/><path d="M-4.19 -36.96L-5.18 -37.19L-3.11 -41.95L-2.51 -41.81Z" fill="#eb6220" stroke="#eb6220" stroke-width="0.34" stroke-linejoin="round"/><path d="M4.19 -36.96L3.17 -36.77L1.9 -41.7L2.51 -41.81Z" fill="#e35e1e" stroke="#e35e1e" stroke-width="0.34" stroke-linejoin="round"/><path d="M-3.17 -36.77L-4.19 -36.96L-2.51 -41.81L-1.9 -41.7Z" fill="#ea6120" stroke="#ea6120" stroke-width="0.34" stroke-linejoin="round"/><path d="M8.88 -27.62L7.51 -27.21L6.63 -32.3L7.84 -32.66Z" fill="#d35719" stroke="#d35719" stroke-width="0.34" stroke-linejoin="round"/><path d="M-7.51 -27.21L-8.88 -27.62L-7.84 -32.66L-6.63 -32.3Z" fill="#e8611f" stroke="#e8611f" stroke-width="0.34" stroke-linejoin="round"/><path d="M8.99 -33.09L7.84 -32.66L6.12 -37.48L7.02 -37.81Z" fill="#d9591b" stroke="#d9591b" stroke-width="0.34" stroke-linejoin="round"/><path d="M-7.84 -32.66L-8.99 -33.09L-7.02 -37.81L-6.12 -37.48Z" fill="#ec6220" stroke="#ec6220" stroke-width="0.34" stroke-linejoin="round"/><path d="M3.17 -36.77L2.13 -36.64L1.28 -41.62L1.9 -41.7Z" fill="#e45e1e" stroke="#e45e1e" stroke-width="0.34" stroke-linejoin="round"/><path d="M-2.13 -36.64L-3.17 -36.77L-1.9 -41.7L-1.28 -41.62Z" fill="#e9611f" stroke="#e9611f" stroke-width="0.34" stroke-linejoin="round"/><path d="M2.13 -36.64L1.07 -36.56L0.64 -41.57L1.28 -41.62Z" fill="#e55f1e" stroke="#e55f1e" stroke-width="0.34" stroke-linejoin="round"/><path d="M-1.07 -36.56L-2.13 -36.64L-1.28 -41.62L-0.64 -41.57Z" fill="#e8601f" stroke="#e8601f" stroke-width="0.34" stroke-linejoin="round"/><path d="M1.07 -36.56L0 -36.53L0 -41.56L0.64 -41.57Z" fill="#e65f1e" stroke="#e65f1e" stroke-width="0.34" stroke-linejoin="round"/><path d="M0 -36.53L-1.07 -36.56L-0.64 -41.57L0 -41.56Z" fill="#e7601f" stroke="#e7601f" stroke-width="0.34" stroke-linejoin="round"/><path d="M7.51 -27.21L6.07 -26.87L5.36 -31.99L6.63 -32.3Z" fill="#d55819" stroke="#d55819" stroke-width="0.34" stroke-linejoin="round"/><path d="M-6.07 -26.87L-7.51 -27.21L-6.63 -32.3L-5.36 -31.99Z" fill="#e65f1e" stroke="#e65f1e" stroke-width="0.34" stroke-linejoin="round"/><path d="M7.84 -32.66L6.63 -32.3L5.18 -37.19L6.12 -37.48Z" fill="#da5a1b" stroke="#da5a1b" stroke-width="0.34" stroke-linejoin="round"/><path d="M-6.63 -32.3L-7.84 -32.66L-6.12 -37.48L-5.18 -37.19Z" fill="#ea6220" stroke="#ea6220" stroke-width="0.34" stroke-linejoin="round"/><path d="M6.07 -26.87L4.6 -26.6L4.06 -31.76L5.36 -31.99Z" fill="#d7581a" stroke="#d7581a" stroke-width="0.34" stroke-linejoin="round"/><path d="M-4.6 -26.6L-6.07 -26.87L-5.36 -31.99L-4.06 -31.76Z" fill="#e45e1e" stroke="#e45e1e" stroke-width="0.34" stroke-linejoin="round"/><path d="M6.63 -32.3L5.36 -31.99L4.19 -36.96L5.18 -37.19Z" fill="#db5b1b" stroke="#db5b1b" stroke-width="0.34" stroke-linejoin="round"/><path d="M-5.36 -31.99L-6.63 -32.3L-5.18 -37.19L-4.19 -36.96Z" fill="#e9611f" stroke="#e9611f" stroke-width="0.34" stroke-linejoin="round"/><path d="M-3.08 -26.4L-4.6 -26.6L-4.06 -31.76L-2.72 -31.59Z" fill="#e25e1d" stroke="#e25e1d" stroke-width="0.34" stroke-linejoin="round"/><path d="M4.6 -26.6L3.08 -26.4L2.72 -31.59L4.06 -31.76Z" fill="#d9591b" stroke="#d9591b" stroke-width="0.34" stroke-linejoin="round"/><path d="M5.36 -31.99L4.06 -31.76L3.17 -36.77L4.19 -36.96Z" fill="#dd5b1c" stroke="#dd5b1c" stroke-width="0.34" stroke-linejoin="round"/><path d="M-4.06 -31.76L-5.36 -31.99L-4.19 -36.96L-3.17 -36.77Z" fill="#e7601f" stroke="#e7601f" stroke-width="0.34" stroke-linejoin="round"/><path d="M3.08 -26.4L1.55 -26.29L1.37 -31.48L2.72 -31.59Z" fill="#db5a1b" stroke="#db5a1b" stroke-width="0.34" stroke-linejoin="round"/><path d="M-1.55 -26.29L-3.08 -26.4L-2.72 -31.59L-1.37 -31.48Z" fill="#e05d1d" stroke="#e05d1d" stroke-width="0.34" stroke-linejoin="round"/><path d="M1.55 -26.29L0 -26.25L0 -31.45L1.37 -31.48Z" fill="#dc5b1c" stroke="#dc5b1c" stroke-width="0.34" stroke-linejoin="round"/><path d="M0 -26.25L-1.55 -26.29L-1.37 -31.48L0 -31.45Z" fill="#de5c1c" stroke="#de5c1c" stroke-width="0.34" stroke-linejoin="round"/><path d="M4.06 -31.76L2.72 -31.59L2.13 -36.64L3.17 -36.77Z" fill="#de5c1c" stroke="#de5c1c" stroke-width="0.34" stroke-linejoin="round"/><path d="M-2.72 -31.59L-4.06 -31.76L-3.17 -36.77L-2.13 -36.64Z" fill="#e55f1e" stroke="#e55f1e" stroke-width="0.34" stroke-linejoin="round"/><path d="M2.72 -31.59L1.37 -31.48L1.07 -36.56L2.13 -36.64Z" fill="#df5c1c" stroke="#df5c1c" stroke-width="0.34" stroke-linejoin="round"/><path d="M-1.37 -31.48L-2.72 -31.59L-2.13 -36.64L-1.07 -36.56Z" fill="#e45e1e" stroke="#e45e1e" stroke-width="0.34" stroke-linejoin="round"/><path d="M1.37 -31.48L0 -31.45L0 -36.53L1.07 -36.56Z" fill="#e15d1d" stroke="#e15d1d" stroke-width="0.34" stroke-linejoin="round"/><path d="M0 -31.45L-1.37 -31.48L-1.07 -36.56L0 -36.53Z" fill="#e25e1d" stroke="#e25e1d" stroke-width="0.34" stroke-linejoin="round"/><path d="M9.23 -16.33L9.87 -16.81M-9.87 -16.81L-9.23 -16.33M-9.23 -16.33L-8.52 -15.88M8.52 -15.88L9.23 -16.33M-8.52 -15.88L-7.75 -15.47M7.75 -15.47L8.52 -15.88M14.65 -22.06L15.19 -22.81M-15.19 -22.81L-14.65 -22.06M6.91 -15.1L7.75 -15.47M-7.75 -15.47L-6.91 -15.1M11.08 -46.97L11.84 -46.39M-11.84 -46.39L-11.08 -46.97M6.03 -14.77L6.91 -15.1M-6.91 -15.1L-6.03 -14.77M17.7 -37.29L17.77 -36.4M-17.77 -36.4L-17.7 -37.29M11.84 -46.39L12.52 -45.77M-12.52 -45.77L-11.84 -46.39M5.09 -14.49L6.03 -14.77M-6.03 -14.77L-5.09 -14.49M-14.65 -22.06L-14 -21.33M14 -21.33L14.65 -22.06M4.12 -14.26L5.09 -14.49M-5.09 -14.49L-4.12 -14.26M17.53 -28.49L17.88 -29.38M-17.88 -29.38L-17.53 -28.49M-4.12 -14.26L-3.12 -14.08M3.12 -14.08L4.12 -14.26M12.52 -45.77L13.11 -45.13M-13.11 -45.13L-12.52 -45.77M2.09 -13.95L3.12 -14.08M-3.12 -14.08L-2.09 -13.95M-14 -21.33L-13.24 -20.65M13.24 -20.65L14 -21.33M1.05 -13.87L2.09 -13.95M-2.09 -13.95L-1.05 -13.87M-1.05 -13.87L0 -13.84M0 -13.84L1.05 -13.87M17.7 -35.51L17.77 -36.4M-17.77 -36.4L-17.7 -35.51M-13.59 -44.46L-13.11 -45.13M13.11 -45.13L13.59 -44.46M17.06 -27.62L17.53 -28.49M-17.53 -28.49L-17.06 -27.62M-13.24 -20.65L-12.38 -20M12.38 -20L13.24 -20.65M17.5 -34.62L17.7 -35.51M-17.7 -35.51L-17.5 -34.62M-13.97 -43.76L-13.59 -44.46M13.59 -44.46L13.97 -43.76M-12.38 -20L-11.43 -19.4M11.43 -19.4L12.38 -20M16.45 -26.77L17.06 -27.62M-17.06 -27.62L-16.45 -26.77M-14.24 -43.05L-13.97 -43.76M13.97 -43.76L14.24 -43.05M10.39 -18.85L11.43 -19.4M-11.43 -19.4L-10.39 -18.85M17.17 -33.74L17.5 -34.62M-17.5 -34.62L-17.17 -33.74M15.72 -25.96L16.45 -26.77M-16.45 -26.77L-15.72 -25.96M9.27 -18.35L10.39 -18.85M-10.39 -18.85L-9.27 -18.35M-14.4 -42.33L-14.24 -43.05M14.24 -43.05L14.4 -42.33M8.08 -17.92L9.27 -18.35M-9.27 -18.35L-8.08 -17.92M16.7 -32.89L17.17 -33.74M-17.17 -33.74L-16.7 -32.89M-15.72 -25.96L-14.87 -25.19M14.87 -25.19L15.72 -25.96M-8.08 -17.92L-6.83 -17.54M6.83 -17.54L8.08 -17.92M-14.46 -41.6L-14.4 -42.33M14.4 -42.33L14.46 -41.6M-6.83 -17.54L-5.53 -17.23M5.53 -17.23L6.83 -17.54M-14.87 -25.19L-13.91 -24.46M13.91 -24.46L14.87 -25.19M16.11 -32.06L16.7 -32.89M-16.7 -32.89L-16.11 -32.06M-5.53 -17.23L-4.18 -16.98M4.18 -16.98L5.53 -17.23M14.4 -40.87L14.46 -41.6M-14.46 -41.6L-14.4 -40.87M2.81 -16.81L4.18 -16.98M-4.18 -16.98L-2.81 -16.81M1.41 -16.7L2.81 -16.81M-2.81 -16.81L-1.41 -16.7M0 -16.67L1.41 -16.7M-1.41 -16.7L0 -16.67M-13.91 -24.46L-12.84 -23.79M12.84 -23.79L13.91 -24.46M-16.11 -32.06L-15.39 -31.27M15.39 -31.27L16.11 -32.06M-14.4 -40.87L-14.24 -40.15M14.24 -40.15L14.4 -40.87M11.67 -23.17L12.84 -23.79M-12.84 -23.79L-11.67 -23.17M-15.39 -31.27L-14.56 -30.51M14.56 -30.51L15.39 -31.27M13.97 -39.44L14.24 -40.15M-14.24 -40.15L-13.97 -39.44M10.41 -22.61L11.67 -23.17M-11.67 -23.17L-10.41 -22.61M13.59 -38.74L13.97 -39.44M-13.97 -39.44L-13.59 -38.74M-14.56 -30.51L-13.61 -29.8M13.61 -29.8L14.56 -30.51M9.08 -22.12L10.41 -22.61M-10.41 -22.61L-9.08 -22.12M7.67 -21.7L9.08 -22.12M-9.08 -22.12L-7.67 -21.7M-13.59 -38.74L-13.11 -38.07M13.11 -38.07L13.59 -38.74M-13.61 -29.8L-12.57 -29.14M12.57 -29.14L13.61 -29.8M6.21 -21.35L7.67 -21.7M-7.67 -21.7L-6.21 -21.35M4.7 -21.08L6.21 -21.35M-6.21 -21.35L-4.7 -21.08M12.52 -37.43L13.11 -38.07M-13.11 -38.07L-12.52 -37.43M11.42 -28.54L12.57 -29.14M-12.57 -29.14L-11.42 -28.54M3.15 -20.88L4.7 -21.08M-4.7 -21.08L-3.15 -20.88M1.58 -20.76L3.15 -20.88M-3.15 -20.88L-1.58 -20.76M0 -20.72L1.58 -20.76M-1.58 -20.76L0 -20.72M-12.52 -37.43L-11.84 -36.81M11.84 -36.81L12.52 -37.43M10.19 -27.99L11.42 -28.54M-11.42 -28.54L-10.19 -27.99M8.89 -27.51L10.19 -27.99M-10.19 -27.99L-8.89 -27.51M-11.84 -36.81L-11.08 -36.23M11.08 -36.23L11.84 -36.81M-8.89 -27.51L-7.51 -27.1M7.51 -27.1L8.89 -27.51M10.22 -35.7L11.08 -36.23M-11.08 -36.23L-10.22 -35.7M6.08 -26.76L7.51 -27.1M-7.51 -27.1L-6.08 -26.76M9.29 -35.2L10.22 -35.7M-10.22 -35.7L-9.29 -35.2M4.6 -26.49L6.08 -26.76M-6.08 -26.76L-4.6 -26.49M3.09 -26.29L4.6 -26.49M-4.6 -26.49L-3.09 -26.29M-9.29 -35.2L-8.29 -34.76M8.29 -34.76L9.29 -35.2M1.55 -26.18L3.09 -26.29M-3.09 -26.29L-1.55 -26.18M-1.55 -26.18L0 -26.14M0 -26.14L1.55 -26.18M7.23 -34.37L8.29 -34.76M-8.29 -34.76L-7.23 -34.37M6.11 -34.03L7.23 -34.37M-7.23 -34.37L-6.11 -34.03M4.95 -33.76L6.11 -34.03M-6.11 -34.03L-4.95 -33.76M3.74 -33.54L4.95 -33.76M-4.95 -33.76L-3.74 -33.54M2.51 -33.38L3.74 -33.54M-3.74 -33.54L-2.51 -33.38M1.26 -33.28L2.51 -33.38M-2.51 -33.38L-1.26 -33.28M0 -33.25L1.26 -33.28M-1.26 -33.28L0 -33.25" fill="none" stroke="#1B1D21" stroke-opacity="0.2" stroke-width="1.24"/></g></g>
</svg>