<svg xmlns="http://www.w3.org/2000/svg" viewBox="0 0 1080 1920">
  <defs>
    <radialGradient id="f-05-do-zero" cx="540" cy="710.4" r="842.4" gradientUnits="userSpaceOnUse">
      <stop offset="0" stop-color="#2C2F35"/><stop offset=".55" stop-color="#17181C"/><stop offset="1" stop-color="#0B0C0E"/>
    </radialGradient>
    <radialGradient id="g-05-do-zero" cx="540" cy="1038" r="483.6" gradientUnits="userSpaceOnUse">
      <stop offset="0" stop-color="#F26522" stop-opacity=".12"/><stop offset="1" stop-color="#F26522" stop-opacity="0"/>
    </radialGradient>
    <linearGradient id="ribg-05-do-zero" x1="0" y1="0" x2="0" y2="1">
      <stop offset="0" stop-color="#fff" stop-opacity=".34"/><stop offset=".2" stop-color="#fff" stop-opacity=".1"/>
      <stop offset=".5" stop-color="#fff" stop-opacity="0"/><stop offset=".78" stop-color="#000" stop-opacity=".14"/>
      <stop offset="1" stop-color="#000" stop-opacity=".5"/></linearGradient>
    <pattern id="rib-05-do-zero" patternUnits="userSpaceOnUse" x="-40" y="1.000" width="200" height="4"><rect width="200" height="4" fill="url(#ribg-05-do-zero)"/></pattern><pattern id="ribe-05-do-zero" patternUnits="userSpaceOnUse" x="-40" y="1.287" width="200" height="4" patternTransform="skewY(30)"><rect width="200" height="4" fill="url(#ribg-05-do-zero)"/></pattern><pattern id="ribd-05-do-zero" patternUnits="userSpaceOnUse" x="-40" y="0.713" width="200" height="4" patternTransform="skewY(-30)"><rect width="200" height="4" fill="url(#ribg-05-do-zero)"/></pattern>
    <linearGradient id="volr-05-do-zero" x1="0" y1="0" x2="1" y2="0">
      <stop offset="0" stop-color="#000" stop-opacity=".5"/><stop offset=".2" stop-color="#000" stop-opacity=".06"/>
      <stop offset=".36" stop-color="#fff" stop-opacity=".24"/><stop offset=".52" stop-color="#fff" stop-opacity="0"/>
      <stop offset=".84" stop-color="#000" stop-opacity=".26"/><stop offset="1" stop-color="#000" stop-opacity=".55"/></linearGradient>
    <linearGradient id="vole-05-do-zero" x1="0" y1="0" x2="0" y2="1">
      <stop offset="0" stop-color="#fff" stop-opacity=".14"/><stop offset=".55" stop-color="#fff" stop-opacity="0"/>
      <stop offset="1" stop-color="#000" stop-opacity=".2"/></linearGradient>
    <radialGradient id="volc-05-do-zero" cx=".38" cy=".3" r=".8">
      <stop offset="0" stop-color="#fff" stop-opacity=".18"/><stop offset=".5" stop-color="#fff" stop-opacity="0"/>
      <stop offset="1" stop-color="#000" stop-opacity=".4"/></radialGradient>
    <linearGradient id="metal-05-do-zero" x1="0" y1="0" x2="1" y2="0">
      <stop offset="0" stop-color="#5E6167"/><stop offset=".3" stop-color="#E4E3DF"/>
      <stop offset=".55" stop-color="#A3A5A9"/><stop offset="1" stop-color="#4B4E54"/></linearGradient>
    <linearGradient id="quente-05-do-zero" x1="0" y1="0" x2="1" y2="0">
      <stop offset="0" stop-color="#F26522"/><stop offset=".7" stop-color="#FF8A4C"/><stop offset="1" stop-color="#FFC9A6"/></linearGradient>
    <radialGradient id="acesa-05-do-zero"><stop offset="0" stop-color="#FFE6D4" stop-opacity=".55"/><stop offset=".6" stop-color="#FF8A4C" stop-opacity=".15"/>
      <stop offset="1" stop-color="#FF8A4C" stop-opacity="0"/></radialGradient>
    <linearGradient id="tampo-05-do-zero" x1="0" y1="0" x2="0" y2="1"><stop offset="0" stop-color="#202226"/><stop offset="1" stop-color="#3A3D44"/></linearGradient>
    <filter id="brilho-05-do-zero" x="-50%" y="-50%" width="200%" height="200%"><feGaussianBlur stdDeviation="2.4"/></filter>
    <filter id="sombra-05-do-zero" x="-30%" y="-200%" width="160%" height="500%"><feGaussianBlur stdDeviation="1.6"/></filter>
  </defs>
  <rect width="1080" height="1920" fill="url(#f-05-do-zero)"/>
  <circle cx="540" cy="960" r="540" fill="url(#g-05-do-zero)"/>
  <g transform="translate(150 570) scale(8.125)"><path d="M48 92L4 66.6L48 41.2L92 66.6Z" fill="#000" opacity=".5" filter="url(#sombra-05-do-zero)" transform="translate(0 3)"/>
    <path d="M48 89L8 66L48 43L88 66Z" fill="url(#tampo-05-do-zero)"/>
    <path d="M8 66L48 89V93L8 70Z" fill="#1A1C1F"/><path d="M48 89L88 66V70L48 93Z" fill="#252729"/>
    <path d="M48 87L14 67.3L48 47.6L82 67.3Z" fill="#F26522" opacity=".18" filter="url(#sombra-05-do-zero)"/>
    <path d="M22 66L48 81L48 65L22 50Z" fill="#F26522"/><path d="M22 66L48 81L48 65L22 50Z" fill="url(#ribe-05-do-zero)"/>
    <path d="M48 81L74 66L74 50L48 65Z" fill="#9E3A0C"/><path d="M48 81L74 66L74 50L48 65Z" fill="url(#ribd-05-do-zero)"/>
    <path d="M22 50L48 65L74 50L48 35Z" fill="#C9500F"/>
    <clipPath id="tp-05-do-zero"><path d="M27.2 50L48 62L68.8 50L48 38Z"/></clipPath>
    <path d="M-3.9800000000000004 20l52 30 M-3.9800000000000004 80l52 -30 M-0.9489999999999981 21.75l52 30 M-0.9489999999999981 78.25l52 -30 M2.0820000000000007 23.5l52 30 M2.0820000000000007 76.5l52 -30 M5.1129999999999995 25.25l52 30 M5.1129999999999995 74.75l52 -30 M8.143999999999998 27l52 30 M8.143999999999998 73l52 -30 M11.174999999999997 28.75l52 30 M11.174999999999997 71.25l52 -30 M14.206000000000003 30.5l52 30 M14.206000000000003 69.5l52 -30 M17.237000000000002 32.25l52 30 M17.237000000000002 67.75l52 -30 M20.268 34l52 30 M20.268 66l52 -30 M23.299 35.75l52 30 M23.299 64.25l52 -30 M26.33 37.5l52 30 M26.33 62.5l52 -30 M29.360999999999997 39.25l52 30 M29.360999999999997 60.75l52 -30 M32.391999999999996 41l52 30 M32.391999999999996 59l52 -30 M35.423 42.75l52 30 M35.423 57.25l52 -30 M38.45400000000001 44.5l52 30 M38.45400000000001 55.5l52 -30 M41.485 46.25l52 30 M41.485 53.75l52 -30 M44.51599999999999 48l52 30 M44.51599999999999 52l52 -30 M47.547 49.75l52 30 M47.547 50.25l52 -30" stroke="#FF8A4C" stroke-width=".7" opacity=".7" clip-path="url(#tp-05-do-zero)"/>
    <path d="M27.2 50L48 62L68.8 50L48 38Z" fill="none" stroke="#FF8A4C" stroke-width="1.6"/>
    <path d="M22 50L48 65L74 50L48 35Z" fill="none" stroke="#FFB085" stroke-width=".8" opacity=".8"/>
    <path d="M22 50V36L48 21L74 36V50 M22 36L48 51L74 36 M48 51V65 M48 35V21" fill="none" stroke="#F3F2EE" stroke-width="1.1" stroke-dasharray="2.4 1.8" opacity=".7"/>
    <rect x="45.4" y="18.4" width="5.2" height="5.2" fill="#F3F2EE"/><rect x="19.4" y="33.4" width="5.2" height="5.2" fill="#F3F2EE"/><rect x="71.4" y="33.4" width="5.2" height="5.2" fill="#F3F2EE"/><rect x="45.4" y="48.4" width="5.2" height="5.2" fill="#F3F2EE"/>
    <circle cx="68.8" cy="50" r="5" fill="#FF8A4C" filter="url(#brilho-05-do-zero)"/><circle cx="68.8" cy="50" r="1.6" fill="#FFE2CC"/></g>
</svg>