<svg xmlns="http://www.w3.org/2000/svg" viewBox="0 0 1080 1920">
  <defs>
    <radialGradient id="f-03-clientes" cx="540" cy="710.4" r="842.4" gradientUnits="userSpaceOnUse">
      <stop offset="0" stop-color="#2C2F35"/><stop offset=".55" stop-color="#17181C"/><stop offset="1" stop-color="#0B0C0E"/>
    </radialGradient>
    <radialGradient id="g-03-clientes" cx="540" cy="1038" r="483.6" gradientUnits="userSpaceOnUse">
      <stop offset="0" stop-color="#F26522" stop-opacity=".12"/><stop offset="1" stop-color="#F26522" stop-opacity="0"/>
    </radialGradient>
    <linearGradient id="ribg-03-clientes" x1="0" y1="0" x2="0" y2="1">
      <stop offset="0" stop-color="#fff" stop-opacity=".34"/><stop offset=".2" stop-color="#fff" stop-opacity=".1"/>
      <stop offset=".5" stop-color="#fff" stop-opacity="0"/><stop offset=".78" stop-color="#000" stop-opacity=".14"/>
      <stop offset="1" stop-color="#000" stop-opacity=".5"/></linearGradient>
    <pattern id="rib-03-clientes" patternUnits="userSpaceOnUse" x="-40" y="1.000" width="200" height="4"><rect width="200" height="4" fill="url(#ribg-03-clientes)"/></pattern><pattern id="ribe-03-clientes" patternUnits="userSpaceOnUse" x="-40" y="1.287" width="200" height="4" patternTransform="skewY(30)"><rect width="200" height="4" fill="url(#ribg-03-clientes)"/></pattern><pattern id="ribd-03-clientes" patternUnits="userSpaceOnUse" x="-40" y="0.713" width="200" height="4" patternTransform="skewY(-30)"><rect width="200" height="4" fill="url(#ribg-03-clientes)"/></pattern>
    <linearGradient id="volr-03-clientes" x1="0" y1="0" x2="1" y2="0">
      <stop offset="0" stop-color="#000" stop-opacity=".5"/><stop offset=".2" stop-color="#000" stop-opacity=".06"/>
      <stop offset=".36" stop-color="#fff" stop-opacity=".24"/><stop offset=".52" stop-color="#fff" stop-opacity="0"/>
      <stop offset=".84" stop-color="#000" stop-opacity=".26"/><stop offset="1" stop-color="#000" stop-opacity=".55"/></linearGradient>
    <linearGradient id="vole-03-clientes" x1="0" y1="0" x2="0" y2="1">
      <stop offset="0" stop-color="#fff" stop-opacity=".14"/><stop offset=".55" stop-color="#fff" stop-opacity="0"/>
      <stop offset="1" stop-color="#000" stop-opacity=".2"/></linearGradient>
    <radialGradient id="volc-03-clientes" cx=".38" cy=".3" r=".8">
      <stop offset="0" stop-color="#fff" stop-opacity=".18"/><stop offset=".5" stop-color="#fff" stop-opacity="0"/>
      <stop offset="1" stop-color="#000" stop-opacity=".4"/></radialGradient>
    <linearGradient id="metal-03-clientes" x1="0" y1="0" x2="1" y2="0">
      <stop offset="0" stop-color="#5E6167"/><stop offset=".3" stop-color="#E4E3DF"/>
      <stop offset=".55" stop-color="#A3A5A9"/><stop offset="1" stop-color="#4B4E54"/></linearGradient>
    <linearGradient id="metalesc-03-clientes" x1="0" y1="0" x2="1" y2="0">
      <stop offset="0" stop-color="#26282D"/><stop offset=".3" stop-color="#4A4D54"/>
      <stop offset=".6" stop-color="#2F3237"/><stop offset="1" stop-color="#1E2024"/></linearGradient>
    <linearGradient id="latao-03-clientes" x1="0" y1="0" x2="1" y2="0">
      <stop offset="0" stop-color="#7A5226"/><stop offset=".4" stop-color="#E2AE72"/><stop offset="1" stop-color="#8E6230"/></linearGradient>
    <linearGradient id="quente-03-clientes" x1="0" y1="0" x2="1" y2="0">
      <stop offset="0" stop-color="#F26522"/><stop offset=".7" stop-color="#FF8A4C"/><stop offset="1" stop-color="#FFC9A6"/></linearGradient>
    <radialGradient id="acesa-03-clientes"><stop offset="0" stop-color="#FFE6D4" stop-opacity=".55"/><stop offset=".6" stop-color="#FF8A4C" stop-opacity=".15"/>
      <stop offset="1" stop-color="#FF8A4C" stop-opacity="0"/></radialGradient>
    <linearGradient id="tampo-03-clientes" x1="0" y1="0" x2="0" y2="1"><stop offset="0" stop-color="#202226"/><stop offset="1" stop-color="#3A3D44"/></linearGradient>
    <filter id="brilho-03-clientes" x="-50%" y="-50%" width="200%" height="200%"><feGaussianBlur stdDeviation="2.4"/></filter>
    <filter id="sombra-03-clientes" x="-30%" y="-200%" width="160%" height="500%"><feGaussianBlur stdDeviation="1.6"/></filter>
  </defs>
  <rect width="1080" height="1920" fill="url(#f-03-clientes)"/>
  <circle cx="540" cy="960" r="540" fill="url(#g-03-clientes)"/>
  <g transform="translate(150 570) scale(8.125)"><ellipse cx="48" cy="85" rx="46" ry="4" fill="#000" opacity=".55" filter="url(#sombra-03-clientes)"/>
    <path d="M10 78H86L90 82H6Z" fill="url(#tampo-03-clientes)"/>
    <path d="M16.38 78L14 82 M23.82 78L22 82 M31.26 78L30 82 M38.7 78L38 82 M46.14 78L46 82 M53.58 78L54 82 M61.02 78L62 82 M68.46 78L70 82 M75.9 78L78 82 M83.34 78L86 82 M8 80H88" stroke="#F3F2EE" stroke-opacity=".06" stroke-width=".3" fill="none"/>
    <ellipse cx="48" cy="80" rx="32" ry="2.2" fill="#F26522" opacity=".35" filter="url(#sombra-03-clientes)"/>
    <rect x="6" y="82" width="84" height="5" fill="#252729"/>
    <rect x="6" y="82" width="84" height=".5" fill="#F3F2EE" opacity=".18"/><g><path d="M10 12H80V62H46L30 81V62H10Z" fill="#9E3A0C" transform="translate(6 0)"/><path d="M10 12H80V62H46L30 81V62H10Z" fill="#9E3A0C" transform="translate(5.5 0)"/><path d="M10 12H80V62H46L30 81V62H10Z" fill="#9E3A0C" transform="translate(5 0)"/><path d="M10 12H80V62H46L30 81V62H10Z" fill="#9E3A0C" transform="translate(4.5 0)"/><path d="M10 12H80V62H46L30 81V62H10Z" fill="#9E3A0C" transform="translate(4 0)"/><path d="M10 12H80V62H46L30 81V62H10Z" fill="#9E3A0C" transform="translate(3.5 0)"/><path d="M10 12H80V62H46L30 81V62H10Z" fill="#9E3A0C" transform="translate(3 0)"/><path d="M10 12H80V62H46L30 81V62H10Z" fill="#9E3A0C" transform="translate(2.5 0)"/><path d="M10 12H80V62H46L30 81V62H10Z" fill="#9E3A0C" transform="translate(2 0)"/><path d="M10 12H80V62H46L30 81V62H10Z" fill="#9E3A0C" transform="translate(1.5 0)"/><path d="M10 12H80V62H46L30 81V62H10Z" fill="#9E3A0C" transform="translate(1 0)"/><path d="M10 12H80V62H46L30 81V62H10Z" fill="#9E3A0C" transform="translate(0.5 0)"/></g>
    <mask id="m3-03-clientes" maskUnits="userSpaceOnUse" x="-20" y="-20" width="136" height="136"><path d="M10 12H80V62H46L30 81V62H10Z" fill="#fff" transform="translate(6 0)"/><path d="M10 12H80V62H46L30 81V62H10Z" fill="#fff" transform="translate(5.5 0)"/><path d="M10 12H80V62H46L30 81V62H10Z" fill="#fff" transform="translate(5 0)"/><path d="M10 12H80V62H46L30 81V62H10Z" fill="#fff" transform="translate(4.5 0)"/><path d="M10 12H80V62H46L30 81V62H10Z" fill="#fff" transform="translate(4 0)"/><path d="M10 12H80V62H46L30 81V62H10Z" fill="#fff" transform="translate(3.5 0)"/><path d="M10 12H80V62H46L30 81V62H10Z" fill="#fff" transform="translate(3 0)"/><path d="M10 12H80V62H46L30 81V62H10Z" fill="#fff" transform="translate(2.5 0)"/><path d="M10 12H80V62H46L30 81V62H10Z" fill="#fff" transform="translate(2 0)"/><path d="M10 12H80V62H46L30 81V62H10Z" fill="#fff" transform="translate(1.5 0)"/><path d="M10 12H80V62H46L30 81V62H10Z" fill="#fff" transform="translate(1 0)"/><path d="M10 12H80V62H46L30 81V62H10Z" fill="#fff" transform="translate(0.5 0)"/></mask>
    <rect x="-20" y="-20" width="136" height="136" fill="url(#rib-03-clientes)" mask="url(#m3-03-clientes)"/>
    <path d="M10 12H80V62H46L30 81V62H10Z" fill="#F26522"/><path d="M10 12H80V62H46L30 81V62H10Z" fill="url(#vole-03-clientes)"/><path d="M10 12H80V62H46L30 81V62H10Z" fill="url(#rib-03-clientes)"/><g><path d="M45 18L49.58 30.69L63.07 31.13L52.42 39.41L56.17 52.37L45 44.8L33.83 52.37L37.58 39.41L26.93 31.13L40.42 30.69Z" fill="#9C998F" transform="translate(1.6 0)"/><path d="M45 18L49.58 30.69L63.07 31.13L52.42 39.41L56.17 52.37L45 44.8L33.83 52.37L37.58 39.41L26.93 31.13L40.42 30.69Z" fill="#9C998F" transform="translate(1.1 0)"/><path d="M45 18L49.58 30.69L63.07 31.13L52.42 39.41L56.17 52.37L45 44.8L33.83 52.37L37.58 39.41L26.93 31.13L40.42 30.69Z" fill="#9C998F" transform="translate(0.6000000000000001 0)"/><path d="M45 18L49.58 30.69L63.07 31.13L52.42 39.41L56.17 52.37L45 44.8L33.83 52.37L37.58 39.41L26.93 31.13L40.42 30.69Z" fill="#9C998F" transform="translate(0.10000000000000009 0)"/></g>
    <mask id="m4-03-clientes" maskUnits="userSpaceOnUse" x="-20" y="-20" width="136" height="136"><path d="M45 18L49.58 30.69L63.07 31.13L52.42 39.41L56.17 52.37L45 44.8L33.83 52.37L37.58 39.41L26.93 31.13L40.42 30.69Z" fill="#fff" transform="translate(1.6 0)"/><path d="M45 18L49.58 30.69L63.07 31.13L52.42 39.41L56.17 52.37L45 44.8L33.83 52.37L37.58 39.41L26.93 31.13L40.42 30.69Z" fill="#fff" transform="translate(1.1 0)"/><path d="M45 18L49.58 30.69L63.07 31.13L52.42 39.41L56.17 52.37L45 44.8L33.83 52.37L37.58 39.41L26.93 31.13L40.42 30.69Z" fill="#fff" transform="translate(0.6000000000000001 0)"/><path d="M45 18L49.58 30.69L63.07 31.13L52.42 39.41L56.17 52.37L45 44.8L33.83 52.37L37.58 39.41L26.93 31.13L40.42 30.69Z" fill="#fff" transform="translate(0.10000000000000009 0)"/></mask>
    <rect x="-20" y="-20" width="136" height="136" fill="url(#rib-03-clientes)" mask="url(#m4-03-clientes)"/>
    <path d="M45 18L49.58 30.69L63.07 31.13L52.42 39.41L56.17 52.37L45 44.8L33.83 52.37L37.58 39.41L26.93 31.13L40.42 30.69Z" fill="#ECEAE4"/><path d="M45 18L49.58 30.69L63.07 31.13L52.42 39.41L56.17 52.37L45 44.8L33.83 52.37L37.58 39.41L26.93 31.13L40.42 30.69Z" fill="url(#vole-03-clientes)"/><path d="M45 18L49.58 30.69L63.07 31.13L52.42 39.41L56.17 52.37L45 44.8L33.83 52.37L37.58 39.41L26.93 31.13L40.42 30.69Z" fill="url(#rib-03-clientes)"/></g>
</svg>