<svg xmlns="http://www.w3.org/2000/svg" viewBox="0 0 1080 1920">
  <defs><radialGradient id="f-01-impressoes" cx="540" cy="960" r="1190.4" gradientUnits="userSpaceOnUse">
    <stop offset="0" stop-color="#24272C"/><stop offset=".45" stop-color="#1B1D21"/><stop offset="1" stop-color="#16171A"/>
  </radialGradient></defs>
  <rect width="1080" height="1920" fill="url(#f-01-impressoes)"/>
  <g transform="translate(90 510) scale(9.375)"><path d="M25.48 35L48 48L48 74L25.48 61Z" fill="#F3F2EE"/><path d="M48 48L70.52 35L70.52 61L48 74Z" fill="#A9AAA6"/><path d="M48 22L70.52 35L48 48L25.48 35Z" fill="#F26522"/><path d="M0 0H30V32H48V64H66V0H96V96H36V64H24V32H12V96H0Z" fill="#C94A12" transform="matrix(0.16 0 0 0.09 40.5 30.67)"/><path d="M25.48 40.2L48 53.2L70.52 40.2M25.48 45.4L48 58.4L70.52 45.4M25.48 50.6L48 63.6L70.52 50.6M25.48 55.8L48 68.8L70.52 55.8" fill="none" stroke="#1B1D21" stroke-opacity=".34" stroke-width="1.3"/><path d="M25.48 35L48 48L70.52 35M48 48L48 74" fill="none" stroke="#1B1D21" stroke-opacity=".35" stroke-width=".8"/></g>
</svg>